<svg width="1920" height="2120" xmlns="http://www.w3.org/2000/svg"><g><path d="M-11,-55L-67,140L-18,29Z" fill="#af1549" stroke="#af1549"/><path d="M-11,-55L-18,29L28,-41Z" fill="#aa1047" stroke="#aa1047"/><path d="M-11,-55L28,-41L161,-49Z" fill="#ae1748" stroke="#ae1748"/><path d="M-11,-55L161,-49L245,-64Z" fill="#b8224b" stroke="#b8224b"/><path d="M28,-41L-18,29L54,72Z" fill="#b3184a" stroke="#b3184a"/><path d="M28,-41L54,72L116,40Z" fill="#ba1f4b" stroke="#ba1f4b"/><path d="M28,-41L116,40L161,-49Z" fill="#b9214b" stroke="#b9214b"/><path d="M161,-49L116,40L230,42Z" fill="#c72e4e" stroke="#c72e4e"/><path d="M161,-49L230,42L245,-64Z" fill="#c7314d" stroke="#c7314d"/><path d="M245,-64L230,42L307,33Z" fill="#cf3a4d" stroke="#cf3a4d"/><path d="M245,-64L307,33L322,-50Z" fill="#cd3a4b" stroke="#cd3a4b"/><path d="M245,-64L322,-50L577,-57Z" fill="#cf4347" stroke="#cf4347"/><path d="M245,-64L577,-57L664,-78Z" fill="#d0554f" stroke="#d0554f"/><path d="M322,-50L307,33L414,-41Z" fill="#d24249" stroke="#d24249"/><path d="M322,-50L414,-41L577,-57Z" fill="#d24d4b" stroke="#d24d4b"/><path d="M414,-41L307,33L419,37Z" fill="#d94949" stroke="#d94949"/><path d="M414,-41L419,37L493,19Z" fill="#db534d" stroke="#db534d"/><path d="M414,-41L493,19L496,-42Z" fill="#d7544e" stroke="#d7544e"/><path d="M414,-41L496,-42L577,-57Z" fill="#d3574f" stroke="#d3574f"/><path d="M496,-42L493,19L577,-57Z" fill="#d75d53" stroke="#d75d53"/><path d="M577,-57L493,19L551,68Z" fill="#dd6455" stroke="#dd6455"/><path d="M577,-57L551,68L659,41Z" fill="#df6d5a" stroke="#df6d5a"/><path d="M577,-57L659,41L664,-78Z" fill="#d86d5d" stroke="#d86d5d"/><path d="M664,-78L659,41L727,-60Z" fill="#d87462" stroke="#d87462"/><path d="M664,-78L727,-60L1030,-55Z" fill="#d17e6c" stroke="#d17e6c"/><path d="M664,-78L1030,-55L1300,-55Z" fill="#c18472" stroke="#c18472"/><path d="M664,-78L1300,-55L2023,-50Z" fill="#8a6e77" stroke="#8a6e77"/><path d="M727,-60L659,41L768,34Z" fill="#de7c67" stroke="#de7c67"/><path d="M727,-60L768,34L858,-37Z" fill="#d9816c" stroke="#d9816c"/><path d="M727,-60L858,-37L1030,-55Z" fill="#cf836e" stroke="#cf836e"/><path d="M858,-37L768,34L855,61Z" fill="#dd876f" stroke="#dd876f"/><path d="M858,-37L855,61L949,37Z" fill="#d98a72" stroke="#d98a72"/><path d="M858,-37L949,37L944,-31Z" fill="#d28971" stroke="#d28971"/><path d="M858,-37L944,-31L1030,-55Z" fill="#cc8771" stroke="#cc8771"/><path d="M944,-31L949,37L1011,34Z" fill="#d28d74" stroke="#d28d74"/><path d="M944,-31L1011,34L1030,-55Z" fill="#c98974" stroke="#c98974"/><path d="M1030,-55L1011,34L1102,23Z" fill="#c48776" stroke="#c48776"/><path d="M1030,-55L1102,23L1116,-17Z" fill="#bc8377" stroke="#bc8377"/><path d="M1030,-55L1116,-17L1235,-35Z" fill="#b27e77" stroke="#b27e77"/><path d="M1030,-55L1235,-35L1300,-55Z" fill="#a67977" stroke="#a67977"/><path d="M1116,-17L1102,23L1196,54Z" fill="#b9837a" stroke="#b9837a"/><path d="M1116,-17L1196,54L1235,-35Z" fill="#ae7e79" stroke="#ae7e79"/><path d="M1235,-35L1196,54L1311,78Z" fill="#a87d7a" stroke="#a87d7a"/><path d="M1235,-35L1311,78L1300,-55Z" fill="#9c777a" stroke="#9c777a"/><path d="M1300,-55L1311,78L1368,-34Z" fill="#94737a" stroke="#94737a"/><path d="M1300,-55L1368,-34L1498,-22Z" fill="#85697b" stroke="#85697b"/><path d="M1300,-55L1498,-22L1554,-25Z" fill="#7d607f" stroke="#7d607f"/><path d="M1300,-55L1554,-25L1713,-34Z" fill="#735483" stroke="#735483"/><path d="M1300,-55L1713,-34L2023,-50Z" fill="#813c7a" stroke="#813c7a"/><path d="M1368,-34L1311,78L1415,39Z" fill="#93727c" stroke="#93727c"/><path d="M1368,-34L1415,39L1498,-22Z" fill="#85667f" stroke="#85667f"/><path d="M1498,-22L1415,39L1500,58Z" fill="#846283" stroke="#846283"/><path d="M1498,-22L1500,58L1566,24Z" fill="#7c5a86" stroke="#7c5a86"/><path d="M1498,-22L1566,24L1554,-25Z" fill="#775585" stroke="#775585"/><path d="M1554,-25L1566,24L1616,-20Z" fill="#7b4f82" stroke="#7b4f82"/><path d="M1554,-25L1616,-20L1713,-34Z" fill="#7e467e" stroke="#7e467e"/><path d="M1616,-20L1566,24L1619,62Z" fill="#824e82" stroke="#824e82"/><path d="M1616,-20L1619,62L1713,-34Z" fill="#85457e" stroke="#85457e"/><path d="M1713,-34L1619,62L1736,50Z" fill="#8d417c" stroke="#8d417c"/><path d="M1713,-34L1736,50L1800,-24Z" fill="#8f3677" stroke="#8f3677"/><path d="M1713,-34L1800,-24L1909,-34Z" fill="#912a72" stroke="#912a72"/><path d="M1713,-34L1909,-34L2023,-50Z" fill="#991f6c" stroke="#991f6c"/><path d="M1800,-24L1736,50L1835,41Z" fill="#983275" stroke="#983275"/><path d="M1800,-24L1835,41L1909,-34Z" fill="#9a2770" stroke="#9a2770"/><path d="M1909,-34L1835,41L1918,57Z" fill="#a3246e" stroke="#a3246e"/><path d="M1909,-34L1918,57L2036,36Z" fill="#aa1a69" stroke="#aa1a69"/><path d="M1909,-34L2036,36L2023,-50Z" fill="#a91165" stroke="#a91165"/><path d="M-18,29L-67,140L54,72Z" fill="#b8194b" stroke="#b8194b"/><path d="M54,72L-67,140L56,130Z" fill="#c11f4d" stroke="#c11f4d"/><path d="M54,72L56,130L129,151Z" fill="#cb2a4f" stroke="#cb2a4f"/><path d="M54,72L129,151L116,40Z" fill="#c92a4f" stroke="#c92a4f"/><path d="M116,40L129,151L227,125Z" fill="#d43552" stroke="#d43552"/><path d="M116,40L227,125L230,42Z" fill="#d33751" stroke="#d33751"/><path d="M230,42L227,125L295,101Z" fill="#db4050" stroke="#db4050"/><path d="M230,42L295,101L307,33Z" fill="#d9414e" stroke="#d9414e"/><path d="M307,33L295,101L395,139Z" fill="#e24a4e" stroke="#e24a4e"/><path d="M307,33L395,139L419,37Z" fill="#e24d4c" stroke="#e24d4c"/><path d="M419,37L395,139L495,158Z" fill="#eb5b51" stroke="#eb5b51"/><path d="M419,37L495,158L493,19Z" fill="#e55d52" stroke="#e55d52"/><path d="M493,19L495,158L551,68Z" fill="#e86656" stroke="#e86656"/><path d="M551,68L495,158L563,162Z" fill="#f06e5a" stroke="#f06e5a"/><path d="M551,68L563,162L639,146Z" fill="#f0755d" stroke="#f0755d"/><path d="M551,68L639,146L659,41Z" fill="#ea765f" stroke="#ea765f"/><path d="M659,41L639,146L768,116Z" fill="#ed8168" stroke="#ed8168"/><path d="M659,41L768,116L768,34Z" fill="#e7836b" stroke="#e7836b"/><path d="M768,34L768,116L818,119Z" fill="#ea8b71" stroke="#ea8b71"/><path d="M768,34L818,119L855,61Z" fill="#e58b71" stroke="#e58b71"/><path d="M855,61L818,119L949,138Z" fill="#e79274" stroke="#e79274"/><path d="M855,61L949,138L949,37Z" fill="#e09175" stroke="#e09175"/><path d="M949,37L949,138L1011,34Z" fill="#db9276" stroke="#db9276"/><path d="M1011,34L949,138L1058,101Z" fill="#d89278" stroke="#d89278"/><path d="M1011,34L1058,101L1102,23Z" fill="#ca8b78" stroke="#ca8b78"/><path d="M1102,23L1058,101L1135,101Z" fill="#c78b7b" stroke="#c78b7b"/><path d="M1102,23L1135,101L1196,54Z" fill="#be867b" stroke="#be867b"/><path d="M1196,54L1135,101L1198,109Z" fill="#bd877d" stroke="#bd877d"/><path d="M1196,54L1198,109L1311,78Z" fill="#b1827c" stroke="#b1827c"/><path d="M1311,78L1198,109L1286,135Z" fill="#b0827e" stroke="#b0827e"/><path d="M1311,78L1286,135L1363,130Z" fill="#a87f7e" stroke="#a87f7e"/><path d="M1311,78L1363,130L1415,39Z" fill="#9c777e" stroke="#9c777e"/><path d="M1415,39L1363,130L1446,122Z" fill="#987281" stroke="#987281"/><path d="M1415,39L1446,122L1500,58Z" fill="#8e6984" stroke="#8e6984"/><path d="M1500,58L1446,122L1547,145Z" fill="#8d6687" stroke="#8d6687"/><path d="M1500,58L1547,145L1566,24Z" fill="#835d89" stroke="#835d89"/><path d="M1566,24L1547,145L1619,62Z" fill="#885786" stroke="#885786"/><path d="M1619,62L1547,145L1668,143Z" fill="#925585" stroke="#925585"/><path d="M1619,62L1668,143L1736,50Z" fill="#94497f" stroke="#94497f"/><path d="M1736,50L1668,143L1751,131Z" fill="#9d457d" stroke="#9d457d"/><path d="M1736,50L1751,131L1796,102Z" fill="#a03d79" stroke="#a03d79"/><path d="M1736,50L1796,102L1835,41Z" fill="#9e3676" stroke="#9e3676"/><path d="M1835,41L1796,102L1910,140Z" fill="#a93073" stroke="#a93073"/><path d="M1835,41L1910,140L1918,57Z" fill="#ac2970" stroke="#ac2970"/><path d="M1918,57L1910,140L1995,169Z" fill="#b9256e" stroke="#b9256e"/><path d="M1918,57L1995,169L2036,36Z" fill="#b81b6a" stroke="#b81b6a"/><path d="M2036,36L1995,169L2012,294Z" fill="#c8216b" stroke="#c8216b"/><path d="M2036,36L2012,294L2029,770Z" fill="#d13a66" stroke="#d13a66"/><path d="M2036,36L2029,770L2036,1361Z" fill="#d27280" stroke="#d27280"/><path d="M2036,36L2036,1361L2037,1633Z" fill="#d28094" stroke="#d28094"/><path d="M2036,36L2037,1633L2038,2211Z" fill="#b57f9e" stroke="#b57f9e"/><path d="M-67,140L-72,566L-71,485Z" fill="#c53e48" stroke="#c53e48"/><path d="M-67,140L-71,485L-55,276Z" fill="#c5314b" stroke="#c5314b"/><path d="M-67,140L-55,276L-28,190Z" fill="#c6244e" stroke="#c6244e"/><path d="M-67,140L-28,190L56,130Z" fill="#c3204e" stroke="#c3204e"/><path d="M56,130L-28,190L14,232Z" fill="#cc2550" stroke="#cc2550"/><path d="M56,130L14,232L129,151Z" fill="#d12c51" stroke="#d12c51"/><path d="M129,151L14,232L149,257Z" fill="#dc3554" stroke="#dc3554"/><path d="M129,151L149,257L245,227Z" fill="#e74156" stroke="#e74156"/><path d="M129,151L245,227L227,125Z" fill="#e34155" stroke="#e34155"/><path d="M227,125L245,227L339,193Z" fill="#ec4b53" stroke="#ec4b53"/><path d="M227,125L339,193L295,101Z" fill="#e64951" stroke="#e64951"/><path d="M295,101L339,193L395,139Z" fill="#eb5150" stroke="#eb5150"/><path d="M395,139L339,193L370,198Z" fill="#f25750" stroke="#f25750"/><path d="M395,139L370,198L479,237Z" fill="#f75f52" stroke="#f75f52"/><path d="M395,139L479,237L495,158Z" fill="#f56555" stroke="#f56555"/><path d="M495,158L479,237L563,162Z" fill="#f86f5a" stroke="#f86f5a"/><path d="M563,162L479,237L587,256Z" fill="#fd785d" stroke="#fd785d"/><path d="M563,162L587,256L651,221Z" fill="#fe7f62" stroke="#fe7f62"/><path d="M563,162L651,221L639,146Z" fill="#f87e63" stroke="#f87e63"/><path d="M639,146L651,221L768,116Z" fill="#f6866a" stroke="#f6866a"/><path d="M768,116L651,221L773,238Z" fill="#fb8e70" stroke="#fb8e70"/><path d="M768,116L773,238L826,198Z" fill="#f89474" stroke="#f89474"/><path d="M768,116L826,198L818,119Z" fill="#f29173" stroke="#f29173"/><path d="M818,119L826,198L949,138Z" fill="#ef9576" stroke="#ef9576"/><path d="M949,138L826,198L956,240Z" fill="#f29b79" stroke="#f29b79"/><path d="M949,138L956,240L1058,246Z" fill="#ed9e7c" stroke="#ed9e7c"/><path d="M949,138L1058,246L1058,101Z" fill="#e1977b" stroke="#e1977b"/><path d="M1058,101L1058,246L1135,101Z" fill="#d5927d" stroke="#d5927d"/><path d="M1135,101L1058,246L1104,257Z" fill="#db967f" stroke="#db967f"/><path d="M1135,101L1104,257L1227,217Z" fill="#d19280" stroke="#d19280"/><path d="M1135,101L1227,217L1198,109Z" fill="#c48b7f" stroke="#c48b7f"/><path d="M1198,109L1227,217L1286,135Z" fill="#bc887f" stroke="#bc887f"/><path d="M1286,135L1227,217L1294,218Z" fill="#bc8a81" stroke="#bc8a81"/><path d="M1286,135L1294,218L1363,130Z" fill="#b08480" stroke="#b08480"/><path d="M1363,130L1294,218L1369,216Z" fill="#af8481" stroke="#af8481"/><path d="M1363,130L1369,216L1446,122Z" fill="#a37a83" stroke="#a37a83"/><path d="M1446,122L1369,216L1488,202Z" fill="#a17686" stroke="#a17686"/><path d="M1446,122L1488,202L1547,145Z" fill="#956b89" stroke="#956b89"/><path d="M1547,145L1488,202L1551,212Z" fill="#95688c" stroke="#95688c"/><path d="M1547,145L1551,212L1668,143Z" fill="#975d89" stroke="#975d89"/><path d="M1668,143L1551,212L1664,222Z" fill="#a05a87" stroke="#a05a87"/><path d="M1668,143L1664,222L1728,241Z" fill="#a85283" stroke="#a85283"/><path d="M1668,143L1728,241L1751,131Z" fill="#a64b80" stroke="#a64b80"/><path d="M1751,131L1728,241L1852,256Z" fill="#b3457d" stroke="#b3457d"/><path d="M1751,131L1852,256L1796,102Z" fill="#af3e79" stroke="#af3e79"/><path d="M1796,102L1852,256L1910,140Z" fill="#b63676" stroke="#b63676"/><path d="M1910,140L1852,256L1947,241Z" fill="#c23374" stroke="#c23374"/><path d="M1910,140L1947,241L1995,169Z" fill="#c32970" stroke="#c32970"/><path d="M1995,169L1947,241L1994,249Z" fill="#cb296e" stroke="#cb296e"/><path d="M1995,169L1994,249L2012,294Z" fill="#cd296c" stroke="#cd296c"/><path d="M-28,190L-55,276L14,232Z" fill="#cb284f" stroke="#cb284f"/><path d="M14,232L-55,276L32,287Z" fill="#ce2c4f" stroke="#ce2c4f"/><path d="M14,232L32,287L149,257Z" fill="#d83651" stroke="#d83651"/><path d="M149,257L32,287L137,335Z" fill="#dd4151" stroke="#dd4151"/><path d="M149,257L137,335L215,317Z" fill="#e64c53" stroke="#e64c53"/><path d="M149,257L215,317L245,227Z" fill="#eb4d54" stroke="#eb4d54"/><path d="M245,227L215,317L277,329Z" fill="#ee5553" stroke="#ee5553"/><path d="M245,227L277,329L339,193Z" fill="#f15553" stroke="#f15553"/><path d="M339,193L277,329L370,198Z" fill="#f55851" stroke="#f55851"/><path d="M370,198L277,329L429,320Z" fill="#f7624f" stroke="#f7624f"/><path d="M370,198L429,320L479,237Z" fill="#fa6853" stroke="#fa6853"/><path d="M479,237L429,320L464,340Z" fill="#fb7453" stroke="#fb7453"/><path d="M479,237L464,340L575,305Z" fill="#fc7b58" stroke="#fc7b58"/><path d="M479,237L575,305L587,256Z" fill="#fd7e5b" stroke="#fd7e5b"/><path d="M587,256L575,305L640,341Z" fill="#fe8b5f" stroke="#fe8b5f"/><path d="M587,256L640,341L651,221Z" fill="#fe8b63" stroke="#fe8b63"/><path d="M651,221L640,341L773,314Z" fill="#fe956a" stroke="#fe956a"/><path d="M651,221L773,314L773,238Z" fill="#fe976f" stroke="#fe976f"/><path d="M773,238L773,314L873,284Z" fill="#fca074" stroke="#fca074"/><path d="M773,238L873,284L826,198Z" fill="#fb9c76" stroke="#fb9c76"/><path d="M826,198L873,284L956,240Z" fill="#f7a078" stroke="#f7a078"/><path d="M956,240L873,284L918,286Z" fill="#f5a578" stroke="#f5a578"/><path d="M956,240L918,286L1028,343Z" fill="#f1aa79" stroke="#f1aa79"/><path d="M956,240L1028,343L1058,246Z" fill="#eaa57b" stroke="#eaa57b"/><path d="M1058,246L1028,343L1104,257Z" fill="#e2a27c" stroke="#e2a27c"/><path d="M1104,257L1028,343L1129,332Z" fill="#dfa57c" stroke="#dfa57c"/><path d="M1104,257L1129,332L1223,299Z" fill="#d59f7e" stroke="#d59f7e"/><path d="M1104,257L1223,299L1227,217Z" fill="#cf9780" stroke="#cf9780"/><path d="M1227,217L1223,299L1294,218Z" fill="#c49281" stroke="#c49281"/><path d="M1294,218L1223,299L1305,336Z" fill="#bf957f" stroke="#bf957f"/><path d="M1294,218L1305,336L1358,311Z" fill="#b7927f" stroke="#b7927f"/><path d="M1294,218L1358,311L1369,216Z" fill="#b38c81" stroke="#b38c81"/><path d="M1369,216L1358,311L1444,289Z" fill="#ac8783" stroke="#ac8783"/><path d="M1369,216L1444,289L1488,202Z" fill="#a67c86" stroke="#a67c86"/><path d="M1488,202L1444,289L1551,212Z" fill="#9e738b" stroke="#9e738b"/><path d="M1551,212L1444,289L1563,328Z" fill="#9b748b" stroke="#9b748b"/><path d="M1551,212L1563,328L1664,222Z" fill="#9f6688" stroke="#9f6688"/><path d="M1664,222L1563,328L1679,330Z" fill="#a46584" stroke="#a46584"/><path d="M1664,222L1679,330L1728,241Z" fill="#aa5981" stroke="#aa5981"/><path d="M1728,241L1679,330L1752,318Z" fill="#ad597e" stroke="#ad597e"/><path d="M1728,241L1752,318L1808,298Z" fill="#b2517b" stroke="#b2517b"/><path d="M1728,241L1808,298L1852,256Z" fill="#b64a7a" stroke="#b64a7a"/><path d="M1852,256L1808,298L1859,389Z" fill="#bb4a75" stroke="#bb4a75"/><path d="M1852,256L1859,389L1942,328Z" fill="#c14572" stroke="#c14572"/><path d="M1852,256L1942,328L1947,241Z" fill="#c43a71" stroke="#c43a71"/><path d="M1947,241L1942,328L1994,249Z" fill="#c9326e" stroke="#c9326e"/><path d="M1994,249L1942,328L2012,294Z" fill="#cb316c" stroke="#cb316c"/><path d="M-55,276L-71,485L-41,375Z" fill="#c73b49" stroke="#c73b49"/><path d="M-55,276L-41,375L32,287Z" fill="#cb334c" stroke="#cb334c"/><path d="M32,287L-41,375L18,435Z" fill="#cf3b4b" stroke="#cf3b4b"/><path d="M32,287L18,435L109,398Z" fill="#d6444d" stroke="#d6444d"/><path d="M32,287L109,398L137,335Z" fill="#dc454f" stroke="#dc454f"/><path d="M137,335L109,398L205,432Z" fill="#e4554f" stroke="#e4554f"/><path d="M137,335L205,432L215,317Z" fill="#e95752" stroke="#e95752"/><path d="M215,317L205,432L277,329Z" fill="#ee5d50" stroke="#ee5d50"/><path d="M277,329L205,432L317,404Z" fill="#f0654e" stroke="#f0654e"/><path d="M277,329L317,404L397,368Z" fill="#f56a4d" stroke="#f56a4d"/><path d="M277,329L397,368L429,320Z" fill="#f86b4d" stroke="#f86b4d"/><path d="M429,320L397,368L464,340Z" fill="#fb7550" stroke="#fb7550"/><path d="M464,340L397,368L475,382Z" fill="#fb7a51" stroke="#fb7a51"/><path d="M464,340L475,382L575,305Z" fill="#fd8156" stroke="#fd8156"/><path d="M575,305L475,382L608,378Z" fill="#fe8b59" stroke="#fe8b59"/><path d="M575,305L608,378L640,341Z" fill="#fe915f" stroke="#fe915f"/><path d="M640,341L608,378L695,435Z" fill="#fe9d62" stroke="#fe9d62"/><path d="M640,341L695,435L773,314Z" fill="#ffa169" stroke="#ffa169"/><path d="M773,314L695,435L773,426Z" fill="#ffaa6c" stroke="#ffaa6c"/><path d="M773,314L773,426L856,434Z" fill="#fdaf70" stroke="#fdaf70"/><path d="M773,314L856,434L873,284Z" fill="#fbaa72" stroke="#fbaa72"/><path d="M873,284L856,434L963,387Z" fill="#f7b174" stroke="#f7b174"/><path d="M873,284L963,387L918,286Z" fill="#f5ab76" stroke="#f5ab76"/><path d="M918,286L963,387L1028,343Z" fill="#f1b078" stroke="#f1b078"/><path d="M1028,343L963,387L1017,426Z" fill="#ecb477" stroke="#ecb477"/><path d="M1028,343L1017,426L1135,395Z" fill="#e3b178" stroke="#e3b178"/><path d="M1028,343L1135,395L1129,332Z" fill="#deaa7b" stroke="#deaa7b"/><path d="M1129,332L1135,395L1192,399Z" fill="#d5a97c" stroke="#d5a97c"/><path d="M1129,332L1192,399L1223,299Z" fill="#d0a37d" stroke="#d0a37d"/><path d="M1223,299L1192,399L1273,391Z" fill="#c7a27c" stroke="#c7a27c"/><path d="M1223,299L1273,391L1305,336Z" fill="#c19d7d" stroke="#c19d7d"/><path d="M1305,336L1273,391L1409,420Z" fill="#b59e7c" stroke="#b59e7c"/><path d="M1305,336L1409,420L1358,311Z" fill="#b1977e" stroke="#b1977e"/><path d="M1358,311L1409,420L1444,289Z" fill="#ab8e81" stroke="#ab8e81"/><path d="M1444,289L1409,420L1485,367Z" fill="#a58a83" stroke="#a58a83"/><path d="M1444,289L1485,367L1563,328Z" fill="#9e7f87" stroke="#9e7f87"/><path d="M1563,328L1485,367L1552,399Z" fill="#997e89" stroke="#997e89"/><path d="M1563,328L1552,399L1613,404Z" fill="#9d7985" stroke="#9d7985"/><path d="M1563,328L1613,404L1679,330Z" fill="#a27083" stroke="#a27083"/><path d="M1679,330L1613,404L1735,379Z" fill="#a96a7f" stroke="#a96a7f"/><path d="M1679,330L1735,379L1752,318Z" fill="#ae5f7c" stroke="#ae5f7c"/><path d="M1752,318L1735,379L1859,389Z" fill="#b55977" stroke="#b55977"/><path d="M1752,318L1859,389L1808,298Z" fill="#b85177" stroke="#b85177"/><path d="M1942,328L1859,389L1907,397Z" fill="#c3486e" stroke="#c3486e"/><path d="M1942,328L1907,397L2001,366Z" fill="#c8406c" stroke="#c8406c"/><path d="M1942,328L2001,366L2012,294Z" fill="#cc366a" stroke="#cc366a"/><path d="M2012,294L2001,366L2029,770Z" fill="#d04b6a" stroke="#d04b6a"/><path d="M-41,375L-71,485L18,435Z" fill="#ca4349" stroke="#ca4349"/><path d="M18,435L-71,485L44,482Z" fill="#ce494d" stroke="#ce494d"/><path d="M18,435L44,482L109,398Z" fill="#d74d4c" stroke="#d74d4c"/><path d="M109,398L44,482L137,456Z" fill="#dd554f" stroke="#dd554f"/><path d="M109,398L137,456L205,432Z" fill="#e45b4f" stroke="#e45b4f"/><path d="M205,432L137,456L242,479Z" fill="#ea6752" stroke="#ea6752"/><path d="M205,432L242,479L307,455Z" fill="#ef6d50" stroke="#ef6d50"/><path d="M205,432L307,455L317,404Z" fill="#f16c4e" stroke="#f16c4e"/><path d="M317,404L307,455L416,494Z" fill="#f7784d" stroke="#f7784d"/><path d="M317,404L416,494L397,368Z" fill="#f9764a" stroke="#f9764a"/><path d="M397,368L416,494L475,382Z" fill="#fb7e4e" stroke="#fb7e4e"/><path d="M475,382L416,494L498,489Z" fill="#fc8b52" stroke="#fc8b52"/><path d="M475,382L498,489L545,475Z" fill="#fd9155" stroke="#fd9155"/><path d="M475,382L545,475L608,378Z" fill="#fd9157" stroke="#fd9157"/><path d="M608,378L545,475L654,509Z" fill="#fea15e" stroke="#fea15e"/><path d="M608,378L654,509L695,435Z" fill="#fea563" stroke="#fea563"/><path d="M695,435L654,509L765,497Z" fill="#ffb36b" stroke="#ffb36b"/><path d="M695,435L765,497L773,426Z" fill="#ffb36e" stroke="#ffb36e"/><path d="M773,426L765,497L856,434Z" fill="#fdb871" stroke="#fdb871"/><path d="M856,434L765,497L834,518Z" fill="#fcbf74" stroke="#fcbf74"/><path d="M856,434L834,518L949,488Z" fill="#f8c176" stroke="#f8c176"/><path d="M856,434L949,488L963,387Z" fill="#f5bc74" stroke="#f5bc74"/><path d="M963,387L949,488L1017,426Z" fill="#f0bd76" stroke="#f0bd76"/><path d="M1017,426L949,488L1055,511Z" fill="#ecc27a" stroke="#ecc27a"/><path d="M1017,426L1055,511L1140,476Z" fill="#e2bd7c" stroke="#e2bd7c"/><path d="M1017,426L1140,476L1135,395Z" fill="#deb579" stroke="#deb579"/><path d="M1135,395L1140,476L1192,399Z" fill="#d5af7a" stroke="#d5af7a"/><path d="M1192,399L1140,476L1197,468Z" fill="#d1b37c" stroke="#d1b37c"/><path d="M1192,399L1197,468L1273,391Z" fill="#c9aa7a" stroke="#c9aa7a"/><path d="M1273,391L1197,468L1288,478Z" fill="#c3ad7d" stroke="#c3ad7d"/><path d="M1273,391L1288,478L1409,420Z" fill="#b6a57b" stroke="#b6a57b"/><path d="M1409,420L1288,478L1397,502Z" fill="#b0a780" stroke="#b0a780"/><path d="M1409,420L1397,502L1469,498Z" fill="#a89f84" stroke="#a89f84"/><path d="M1409,420L1469,498L1485,367Z" fill="#a49382" stroke="#a49382"/><path d="M1485,367L1469,498L1552,399Z" fill="#9d8a85" stroke="#9d8a85"/><path d="M1552,399L1469,498L1570,479Z" fill="#9a8d89" stroke="#9a8d89"/><path d="M1552,399L1570,479L1613,404Z" fill="#9e7f84" stroke="#9e7f84"/><path d="M1613,404L1570,479L1643,502Z" fill="#a18185" stroke="#a18185"/><path d="M1613,404L1643,502L1704,473Z" fill="#a67a82" stroke="#a67a82"/><path d="M1613,404L1704,473L1735,379Z" fill="#aa6f7c" stroke="#aa6f7c"/><path d="M1735,379L1704,473L1824,505Z" fill="#b26a7a" stroke="#b26a7a"/><path d="M1735,379L1824,505L1859,389Z" fill="#b85d74" stroke="#b85d74"/><path d="M1859,389L1824,505L1881,518Z" fill="#bd5e74" stroke="#bd5e74"/><path d="M1859,389L1881,518L1907,397Z" fill="#c0546f" stroke="#c0546f"/><path d="M1907,397L1881,518L1973,460Z" fill="#c5526f" stroke="#c5526f"/><path d="M1907,397L1973,460L2001,366Z" fill="#c94469" stroke="#c94469"/><path d="M2001,366L1973,460L1977,562Z" fill="#cc4a6a" stroke="#cc4a6a"/><path d="M2001,366L1977,562L2005,694Z" fill="#cd5670" stroke="#cd5670"/><path d="M2001,366L2005,694L2029,770Z" fill="#cf6375" stroke="#cf6375"/><path d="M-71,485L-72,566L44,482Z" fill="#ca514f" stroke="#ca514f"/><path d="M44,482L-72,566L50,575Z" fill="#d05853" stroke="#d05853"/><path d="M44,482L50,575L107,555Z" fill="#d86155" stroke="#d86155"/><path d="M44,482L107,555L137,456Z" fill="#dd5f53" stroke="#dd5f53"/><path d="M137,456L107,555L242,479Z" fill="#e66855" stroke="#e66855"/><path d="M242,479L107,555L253,564Z" fill="#eb7558" stroke="#eb7558"/><path d="M242,479L253,564L279,568Z" fill="#f07d57" stroke="#f07d57"/><path d="M242,479L279,568L307,455Z" fill="#f17954" stroke="#f17954"/><path d="M307,455L279,568L416,494Z" fill="#f68152" stroke="#f68152"/><path d="M416,494L279,568L436,570Z" fill="#f98d54" stroke="#f98d54"/><path d="M416,494L436,570L498,489Z" fill="#fb9456" stroke="#fb9456"/><path d="M498,489L436,570L504,596Z" fill="#fc9f5c" stroke="#fc9f5c"/><path d="M498,489L504,596L545,475Z" fill="#fda05c" stroke="#fda05c"/><path d="M545,475L504,596L573,597Z" fill="#fdaa61" stroke="#fdaa61"/><path d="M545,475L573,597L654,509Z" fill="#fead63" stroke="#fead63"/><path d="M654,509L573,597L648,602Z" fill="#feb96a" stroke="#feb96a"/><path d="M654,509L648,602L761,549Z" fill="#ffbe6f" stroke="#ffbe6f"/><path d="M654,509L761,549L765,497Z" fill="#ffbd71" stroke="#ffbd71"/><path d="M765,497L761,549L834,518Z" fill="#fec476" stroke="#fec476"/><path d="M834,518L761,549L847,602Z" fill="#fccc7a" stroke="#fccc7a"/><path d="M834,518L847,602L910,551Z" fill="#f9ce7c" stroke="#f9ce7c"/><path d="M834,518L910,551L949,488Z" fill="#f7ca7a" stroke="#f7ca7a"/><path d="M949,488L910,551L1038,582Z" fill="#f2d07e" stroke="#f2d07e"/><path d="M949,488L1038,582L1055,511Z" fill="#eacb7e" stroke="#eacb7e"/><path d="M1055,511L1038,582L1145,561Z" fill="#e0cb82" stroke="#e0cb82"/><path d="M1055,511L1145,561L1140,476Z" fill="#dbc381" stroke="#dbc381"/><path d="M1140,476L1145,561L1197,468Z" fill="#d4bd81" stroke="#d4bd81"/><path d="M1197,468L1145,561L1220,563Z" fill="#cfc183" stroke="#cfc183"/><path d="M1197,468L1220,563L1264,552Z" fill="#c8bd83" stroke="#c8bd83"/><path d="M1197,468L1264,552L1288,478Z" fill="#c4b681" stroke="#c4b681"/><path d="M1288,478L1264,552L1364,596Z" fill="#baba84" stroke="#baba84"/><path d="M1288,478L1364,596L1397,502Z" fill="#b2b484" stroke="#b2b484"/><path d="M1397,502L1364,596L1457,560Z" fill="#aab089" stroke="#aab089"/><path d="M1397,502L1457,560L1469,498Z" fill="#a6a589" stroke="#a6a589"/><path d="M1469,498L1457,560L1557,593Z" fill="#9ea38f" stroke="#9ea38f"/><path d="M1469,498L1557,593L1570,479Z" fill="#99988f" stroke="#99988f"/><path d="M1570,479L1557,593L1612,553Z" fill="#9e948d" stroke="#9e948d"/><path d="M1570,479L1612,553L1643,502Z" fill="#a18b89" stroke="#a18b89"/><path d="M1643,502L1612,553L1763,598Z" fill="#a88888" stroke="#a88888"/><path d="M1643,502L1763,598L1704,473Z" fill="#ac7e83" stroke="#ac7e83"/><path d="M1704,473L1763,598L1824,505Z" fill="#b3767f" stroke="#b3767f"/><path d="M1824,505L1763,598L1820,587Z" fill="#b77780" stroke="#b77780"/><path d="M1824,505L1820,587L1881,518Z" fill="#bc6c7b" stroke="#bc6c7b"/><path d="M1881,518L1820,587L1899,581Z" fill="#bf6d7b" stroke="#bf6d7b"/><path d="M1881,518L1899,581L1977,562Z" fill="#c56476" stroke="#c56476"/><path d="M1881,518L1977,562L1973,460Z" fill="#c75972" stroke="#c75972"/><path d="M-72,566L-77,2198L-74,1387Z" fill="#957981" stroke="#957981"/><path d="M-72,566L-74,1387L-71,922Z" fill="#c48076" stroke="#c48076"/><path d="M-72,566L-71,922L-58,679Z" fill="#c57263" stroke="#c57263"/><path d="M-72,566L-58,679L34,658Z" fill="#ca675a" stroke="#ca675a"/><path d="M-72,566L34,658L50,575Z" fill="#cf6258" stroke="#cf6258"/><path d="M50,575L34,658L109,672Z" fill="#d8725d" stroke="#d8725d"/><path d="M50,575L109,672L107,555Z" fill="#db705b" stroke="#db705b"/><path d="M107,555L109,672L253,564Z" fill="#e57a5d" stroke="#e57a5d"/><path d="M253,564L109,672L245,698Z" fill="#eb8962" stroke="#eb8962"/><path d="M253,564L245,698L279,568Z" fill="#f08a5d" stroke="#f08a5d"/><path d="M279,568L245,698L277,702Z" fill="#f09261" stroke="#f09261"/><path d="M279,568L277,702L369,676Z" fill="#f4965f" stroke="#f4965f"/><path d="M279,568L369,676L436,570Z" fill="#f89659" stroke="#f89659"/><path d="M436,570L369,676L482,678Z" fill="#fba65f" stroke="#fba65f"/><path d="M436,570L482,678L504,596Z" fill="#fca960" stroke="#fca960"/><path d="M504,596L482,678L557,699Z" fill="#fdb768" stroke="#fdb768"/><path d="M504,596L557,699L573,597Z" fill="#feb867" stroke="#feb867"/><path d="M573,597L557,699L648,602Z" fill="#fec06c" stroke="#fec06c"/><path d="M648,602L557,699L699,648Z" fill="#fec872" stroke="#fec872"/><path d="M648,602L699,648L761,549Z" fill="#ffc975" stroke="#ffc975"/><path d="M761,549L699,648L768,643Z" fill="#ffd07a" stroke="#ffd07a"/><path d="M761,549L768,643L847,602Z" fill="#fdd27d" stroke="#fdd27d"/><path d="M847,602L768,643L881,634Z" fill="#fbd980" stroke="#fbd980"/><path d="M847,602L881,634L910,551Z" fill="#f8d680" stroke="#f8d680"/><path d="M910,551L881,634L968,642Z" fill="#f5db82" stroke="#f5db82"/><path d="M910,551L968,642L1038,582Z" fill="#f1da83" stroke="#f1da83"/><path d="M1038,582L968,642L1030,654Z" fill="#ebdd86" stroke="#ebdd86"/><path d="M1038,582L1030,654L1115,676Z" fill="#e3dc89" stroke="#e3dc89"/><path d="M1038,582L1115,676L1145,561Z" fill="#ddd488" stroke="#ddd488"/><path d="M1145,561L1115,676L1220,563Z" fill="#d4cf89" stroke="#d4cf89"/><path d="M1220,563L1115,676L1225,700Z" fill="#cfd58d" stroke="#cfd58d"/><path d="M1220,563L1225,700L1281,660Z" fill="#c5d08c" stroke="#c5d08c"/><path d="M1220,563L1281,660L1264,552Z" fill="#c3c789" stroke="#c3c789"/><path d="M1264,552L1281,660L1364,596Z" fill="#bac689" stroke="#bac689"/><path d="M1364,596L1281,660L1372,655Z" fill="#b4c98c" stroke="#b4c98c"/><path d="M1364,596L1372,655L1457,560Z" fill="#abbb8d" stroke="#abbb8d"/><path d="M1457,560L1372,655L1451,680Z" fill="#a8bb91" stroke="#a8bb91"/><path d="M1457,560L1451,680L1557,593Z" fill="#9fae93" stroke="#9fae93"/><path d="M1557,593L1451,680L1561,642Z" fill="#9bae98" stroke="#9bae98"/><path d="M1557,593L1561,642L1612,553Z" fill="#9d9e92" stroke="#9d9e92"/><path d="M1612,553L1561,642L1627,692Z" fill="#a0a193" stroke="#a0a193"/><path d="M1612,553L1627,692L1763,598Z" fill="#a8948d" stroke="#a8948d"/><path d="M1763,598L1627,692L1764,698Z" fill="#ae948e" stroke="#ae948e"/><path d="M1763,598L1764,698L1859,664Z" fill="#b68788" stroke="#b68788"/><path d="M1763,598L1859,664L1820,587Z" fill="#b97f83" stroke="#b97f83"/><path d="M1820,587L1859,664L1899,581Z" fill="#be7780" stroke="#be7780"/><path d="M1899,581L1859,664L1894,702Z" fill="#c17a81" stroke="#c17a81"/><path d="M1899,581L1894,702L2005,694Z" fill="#c6737f" stroke="#c6737f"/><path d="M1899,581L2005,694L1977,562Z" fill="#c96878" stroke="#c96878"/><path d="M-58,679L-71,922L-49,850Z" fill="#c67c6f" stroke="#c67c6f"/><path d="M-58,679L-49,850L-27,763Z" fill="#c87669" stroke="#c87669"/><path d="M-58,679L-27,763L34,658Z" fill="#cc6f62" stroke="#cc6f62"/><path d="M34,658L-27,763L37,772Z" fill="#d17667" stroke="#d17667"/><path d="M34,658L37,772L109,672Z" fill="#d77965" stroke="#d77965"/><path d="M109,672L37,772L150,755Z" fill="#dd836a" stroke="#dd836a"/><path d="M109,672L150,755L245,698Z" fill="#e78b69" stroke="#e78b69"/><path d="M245,698L150,755L204,772Z" fill="#eb946e" stroke="#eb946e"/><path d="M245,698L204,772L277,702Z" fill="#ee976a" stroke="#ee976a"/><path d="M277,702L204,772L310,757Z" fill="#f09c6c" stroke="#f09c6c"/><path d="M277,702L310,757L369,676Z" fill="#f49f66" stroke="#f49f66"/><path d="M369,676L310,757L403,746Z" fill="#f8a567" stroke="#f8a567"/><path d="M369,676L403,746L482,678Z" fill="#fbab65" stroke="#fbab65"/><path d="M482,678L403,746L481,755Z" fill="#fbb46c" stroke="#fbb46c"/><path d="M482,678L481,755L557,699Z" fill="#fdbc6e" stroke="#fdbc6e"/><path d="M557,699L481,755L576,766Z" fill="#fdc474" stroke="#fdc474"/><path d="M557,699L576,766L635,791Z" fill="#fecd7a" stroke="#fecd7a"/><path d="M557,699L635,791L699,648Z" fill="#fece79" stroke="#fece79"/><path d="M699,648L635,791L678,818Z" fill="#fed883" stroke="#fed883"/><path d="M699,648L678,818L773,787Z" fill="#ffde88" stroke="#ffde88"/><path d="M699,648L773,787L768,643Z" fill="#ffdb84" stroke="#ffdb84"/><path d="M768,643L773,787L852,769Z" fill="#fde48c" stroke="#fde48c"/><path d="M768,643L852,769L881,634Z" fill="#fbe087" stroke="#fbe087"/><path d="M881,634L852,769L989,728Z" fill="#f6e88d" stroke="#f6e88d"/><path d="M881,634L989,728L968,642Z" fill="#f4e589" stroke="#f4e589"/><path d="M968,642L989,728L1030,654Z" fill="#ede58b" stroke="#ede58b"/><path d="M1030,654L989,728L1096,772Z" fill="#e7e792" stroke="#e7e792"/><path d="M1030,654L1096,772L1115,676Z" fill="#e0e292" stroke="#e0e292"/><path d="M1115,676L1096,772L1229,752Z" fill="#d6e297" stroke="#d6e297"/><path d="M1115,676L1229,752L1225,700Z" fill="#cedc95" stroke="#cedc95"/><path d="M1225,700L1229,752L1281,660Z" fill="#c5d794" stroke="#c5d794"/><path d="M1281,660L1229,752L1353,748Z" fill="#bdd696" stroke="#bdd696"/><path d="M1281,660L1353,748L1372,655Z" fill="#b4cf92" stroke="#b4cf92"/><path d="M1372,655L1353,748L1451,680Z" fill="#acc896" stroke="#acc896"/><path d="M1451,680L1353,748L1490,785Z" fill="#a7c79e" stroke="#a7c79e"/><path d="M1451,680L1490,785L1576,739Z" fill="#9dbba2" stroke="#9dbba2"/><path d="M1451,680L1576,739L1561,642Z" fill="#9ab39e" stroke="#9ab39e"/><path d="M1561,642L1576,739L1627,692Z" fill="#9faa9b" stroke="#9faa9b"/><path d="M1627,692L1576,739L1649,739Z" fill="#a2aa9d" stroke="#a2aa9d"/><path d="M1627,692L1649,739L1764,698Z" fill="#a99f97" stroke="#a99f97"/><path d="M1764,698L1649,739L1720,762Z" fill="#ad9d97" stroke="#ad9d97"/><path d="M1764,698L1720,762L1825,776Z" fill="#b49695" stroke="#b49695"/><path d="M1764,698L1825,776L1859,664Z" fill="#b98b8e" stroke="#b98b8e"/><path d="M1859,664L1825,776L1894,702Z" fill="#be858b" stroke="#be858b"/><path d="M1894,702L1825,776L1904,747Z" fill="#c0868d" stroke="#c0868d"/><path d="M1894,702L1904,747L2005,694Z" fill="#c67a86" stroke="#c67a86"/><path d="M2005,694L1904,747L2029,770Z" fill="#cc7585" stroke="#cc7585"/><path d="M-27,763L-49,850L45,831Z" fill="#cd7c70" stroke="#cd7c70"/><path d="M-27,763L45,831L37,772Z" fill="#d17d6e" stroke="#d17d6e"/><path d="M37,772L45,831L111,812Z" fill="#d88571" stroke="#d88571"/><path d="M37,772L111,812L150,755Z" fill="#dd8970" stroke="#dd8970"/><path d="M150,755L111,812L204,772Z" fill="#e59171" stroke="#e59171"/><path d="M204,772L111,812L236,869Z" fill="#e99a77" stroke="#e99a77"/><path d="M204,772L236,869L310,757Z" fill="#efa073" stroke="#efa073"/><path d="M310,757L236,869L340,849Z" fill="#f3a975" stroke="#f3a975"/><path d="M310,757L340,849L403,746Z" fill="#f7ab6e" stroke="#f7ab6e"/><path d="M403,746L340,849L433,853Z" fill="#fab471" stroke="#fab471"/><path d="M403,746L433,853L481,755Z" fill="#fbb972" stroke="#fbb972"/><path d="M481,755L433,853L493,818Z" fill="#fcc077" stroke="#fcc077"/><path d="M481,755L493,818L576,766Z" fill="#fdc577" stroke="#fdc577"/><path d="M576,766L493,818L580,843Z" fill="#fece7d" stroke="#fece7d"/><path d="M576,766L580,843L635,791Z" fill="#fed480" stroke="#fed480"/><path d="M635,791L580,843L678,818Z" fill="#feda86" stroke="#feda86"/><path d="M773,787L678,818L732,821Z" fill="#ffe690" stroke="#ffe690"/><path d="M773,787L732,821L872,848Z" fill="#fdee96" stroke="#fdee96"/><path d="M773,787L872,848L852,769Z" fill="#fbee95" stroke="#fbee95"/><path d="M852,769L872,848L919,854Z" fill="#f8f39a" stroke="#f8f39a"/><path d="M852,769L919,854L967,772Z" fill="#f6f298" stroke="#f6f298"/><path d="M852,769L967,772L989,728Z" fill="#f4ee93" stroke="#f4ee93"/><path d="M967,772L919,854L1046,871Z" fill="#f0f79e" stroke="#f0f79e"/><path d="M967,772L1046,871L1096,772Z" fill="#e7f09d" stroke="#e7f09d"/><path d="M967,772L1096,772L989,728Z" fill="#eaec96" stroke="#eaec96"/><path d="M1096,772L1046,871L1112,851Z" fill="#e0f0a1" stroke="#e0f0a1"/><path d="M1096,772L1112,851L1199,854Z" fill="#d8eda2" stroke="#d8eda2"/><path d="M1096,772L1199,854L1229,752Z" fill="#d1e69f" stroke="#d1e69f"/><path d="M1229,752L1199,854L1292,837Z" fill="#c5e4a1" stroke="#c5e4a1"/><path d="M1229,752L1292,837L1318,790Z" fill="#bedf9f" stroke="#bedf9f"/><path d="M1229,752L1318,790L1353,748Z" fill="#bbda9c" stroke="#bbda9c"/><path d="M1318,790L1292,837L1396,842Z" fill="#b4dea3" stroke="#b4dea3"/><path d="M1318,790L1396,842L1353,748Z" fill="#b1d9a0" stroke="#b1d9a0"/><path d="M1353,748L1396,842L1438,827Z" fill="#acd4a4" stroke="#acd4a4"/><path d="M1353,748L1438,827L1490,785Z" fill="#a8cda3" stroke="#a8cda3"/><path d="M1490,785L1438,827L1528,851Z" fill="#a0c8ac" stroke="#a0c8ac"/><path d="M1490,785L1528,851L1576,739Z" fill="#99beaa" stroke="#99beaa"/><path d="M1576,739L1528,851L1650,820Z" fill="#9eb8a9" stroke="#9eb8a9"/><path d="M1576,739L1650,820L1649,739Z" fill="#a3ada1" stroke="#a3ada1"/><path d="M1649,739L1650,820L1720,762Z" fill="#a8a79f" stroke="#a8a79f"/><path d="M1720,762L1650,820L1757,877Z" fill="#ada7a2" stroke="#ada7a2"/><path d="M1720,762L1757,877L1825,776Z" fill="#b39c9c" stroke="#b39c9c"/><path d="M1825,776L1757,877L1853,870Z" fill="#b89a9d" stroke="#b89a9d"/><path d="M1825,776L1853,870L1885,825Z" fill="#bd9198" stroke="#bd9198"/><path d="M1825,776L1885,825L1904,747Z" fill="#bf8a92" stroke="#bf8a92"/><path d="M1904,747L1885,825L1997,842Z" fill="#c68491" stroke="#c68491"/><path d="M1904,747L1997,842L2029,770Z" fill="#cb7b8b" stroke="#cb7b8b"/><path d="M2029,770L1997,842L1974,1006Z" fill="#ce8092" stroke="#ce8092"/><path d="M2029,770L1974,1006L1992,1122Z" fill="#ce8095" stroke="#ce8095"/><path d="M2029,770L1992,1122L2008,1199Z" fill="#cf8097" stroke="#cf8097"/><path d="M2029,770L2008,1199L2031,1303Z" fill="#cd8098" stroke="#cd8098"/><path d="M2029,770L2031,1303L2036,1361Z" fill="#c88099" stroke="#c88099"/><path d="M-49,850L-71,922L55,959Z" fill="#cc8076" stroke="#cc8076"/><path d="M-49,850L55,959L45,831Z" fill="#d18376" stroke="#d18376"/><path d="M45,831L55,959L150,899Z" fill="#db8d79" stroke="#db8d79"/><path d="M45,831L150,899L111,812Z" fill="#dd9078" stroke="#dd9078"/><path d="M111,812L150,899L236,869Z" fill="#e69b7a" stroke="#e69b7a"/><path d="M236,869L150,899L216,903Z" fill="#eba07c" stroke="#eba07c"/><path d="M236,869L216,903L340,919Z" fill="#f0a87a" stroke="#f0a87a"/><path d="M236,869L340,919L340,849Z" fill="#f3ad78" stroke="#f3ad78"/><path d="M340,849L340,919L388,924Z" fill="#f7b377" stroke="#f7b377"/><path d="M340,849L388,924L433,853Z" fill="#fab776" stroke="#fab776"/><path d="M433,853L388,924L485,964Z" fill="#fbbf7b" stroke="#fbbf7b"/><path d="M433,853L485,964L549,915Z" fill="#fcc87f" stroke="#fcc87f"/><path d="M433,853L549,915L493,818Z" fill="#fcc87e" stroke="#fcc87e"/><path d="M493,818L549,915L580,843Z" fill="#fdd181" stroke="#fdd181"/><path d="M580,843L549,915L645,940Z" fill="#fed987" stroke="#fed987"/><path d="M580,843L645,940L678,818Z" fill="#fede8b" stroke="#fede8b"/><path d="M678,818L645,940L732,821Z" fill="#ffe590" stroke="#ffe590"/><path d="M732,821L645,940L776,962Z" fill="#ffe995" stroke="#ffe995"/><path d="M732,821L776,962L821,943Z" fill="#fef09b" stroke="#fef09b"/><path d="M732,821L821,943L872,848Z" fill="#fcf29b" stroke="#fcf29b"/><path d="M872,848L821,943L942,904Z" fill="#f8f69e" stroke="#f8f69e"/><path d="M872,848L942,904L919,854Z" fill="#f6f89e" stroke="#f6f89e"/><path d="M919,854L942,904L1046,871Z" fill="#f1faa1" stroke="#f1faa1"/><path d="M1046,871L942,904L1056,914Z" fill="#eaf7a2" stroke="#eaf7a2"/><path d="M1046,871L1056,914L1079,917Z" fill="#e3f4a4" stroke="#e3f4a4"/><path d="M1046,871L1079,917L1112,851Z" fill="#e0f3a4" stroke="#e0f3a4"/><path d="M1112,851L1079,917L1202,939Z" fill="#d8f0a7" stroke="#d8f0a7"/><path d="M1112,851L1202,939L1199,854Z" fill="#d2eda6" stroke="#d2eda6"/><path d="M1199,854L1202,939L1303,914Z" fill="#c6e8a7" stroke="#c6e8a7"/><path d="M1199,854L1303,914L1292,837Z" fill="#c1e6a6" stroke="#c1e6a6"/><path d="M1292,837L1303,914L1396,842Z" fill="#b5e2a6" stroke="#b5e2a6"/><path d="M1396,842L1303,914L1398,917Z" fill="#b0dda9" stroke="#b0dda9"/><path d="M1396,842L1398,917L1438,827Z" fill="#aad7aa" stroke="#aad7aa"/><path d="M1438,827L1398,917L1453,963Z" fill="#a7d4ad" stroke="#a7d4ad"/><path d="M1438,827L1453,963L1532,917Z" fill="#a1cdb0" stroke="#a1cdb0"/><path d="M1438,827L1532,917L1528,851Z" fill="#9ec9b0" stroke="#9ec9b0"/><path d="M1528,851L1532,917L1650,820Z" fill="#9dbfb0" stroke="#9dbfb0"/><path d="M1650,820L1532,917L1642,960Z" fill="#a1b9af" stroke="#a1b9af"/><path d="M1650,820L1642,960L1757,877Z" fill="#aaaea9" stroke="#aaaea9"/><path d="M1757,877L1642,960L1763,908Z" fill="#aea8a7" stroke="#aea8a7"/><path d="M1757,877L1763,908L1853,870Z" fill="#b69ea1" stroke="#b69ea1"/><path d="M1853,870L1763,908L1806,966Z" fill="#b89ba1" stroke="#b89ba1"/><path d="M1853,870L1806,966L1899,914Z" fill="#bd959e" stroke="#bd959e"/><path d="M1853,870L1899,914L1885,825Z" fill="#c0919b" stroke="#c0919b"/><path d="M1885,825L1899,914L1997,842Z" fill="#c68a97" stroke="#c68a97"/><path d="M1997,842L1899,914L1975,929Z" fill="#c98596" stroke="#c98596"/><path d="M1997,842L1975,929L1974,1006Z" fill="#cc8295" stroke="#cc8295"/><path d="M-71,922L-74,1387L-37,1139Z" fill="#bc807d" stroke="#bc807d"/><path d="M-71,922L-37,1139L-29,1032Z" fill="#c88079" stroke="#c88079"/><path d="M-71,922L-29,1032L45,992Z" fill="#cc8078" stroke="#cc8078"/><path d="M-71,922L45,992L55,959Z" fill="#d08279" stroke="#d08279"/><path d="M55,959L45,992L117,1022Z" fill="#d98c7c" stroke="#d98c7c"/><path d="M55,959L117,1022L150,899Z" fill="#de917c" stroke="#de917c"/><path d="M150,899L117,1022L216,903Z" fill="#e69a7d" stroke="#e69a7d"/><path d="M216,903L117,1022L231,1055Z" fill="#ea9e80" stroke="#ea9e80"/><path d="M216,903L231,1055L324,1039Z" fill="#efa77e" stroke="#efa77e"/><path d="M216,903L324,1039L340,919Z" fill="#f2ab7b" stroke="#f2ab7b"/><path d="M340,919L324,1039L388,924Z" fill="#f7b27a" stroke="#f7b27a"/><path d="M388,924L324,1039L425,1007Z" fill="#f9b67a" stroke="#f9b67a"/><path d="M388,924L425,1007L485,964Z" fill="#fbbe7d" stroke="#fbbe7d"/><path d="M485,964L425,1007L519,1003Z" fill="#fcc681" stroke="#fcc681"/><path d="M485,964L519,1003L549,915Z" fill="#fdcd83" stroke="#fdcd83"/><path d="M549,915L519,1003L549,1022Z" fill="#fdd085" stroke="#fdd085"/><path d="M549,915L549,1022L645,940Z" fill="#fed788" stroke="#fed788"/><path d="M645,940L549,1022L677,1028Z" fill="#fedd8e" stroke="#fedd8e"/><path d="M645,940L677,1028L776,962Z" fill="#ffe796" stroke="#ffe796"/><path d="M776,962L677,1028L757,1024Z" fill="#ffec9b" stroke="#ffec9b"/><path d="M776,962L757,1024L857,1035Z" fill="#fdf19f" stroke="#fdf19f"/><path d="M776,962L857,1035L821,943Z" fill="#fcf29f" stroke="#fcf29f"/><path d="M821,943L857,1035L926,1000Z" fill="#f9f5a1" stroke="#f9f5a1"/><path d="M821,943L926,1000L942,904Z" fill="#f7f7a1" stroke="#f7f7a1"/><path d="M942,904L926,1000L1038,1007Z" fill="#f1faa4" stroke="#f1faa4"/><path d="M942,904L1038,1007L1056,914Z" fill="#ebf7a4" stroke="#ebf7a4"/><path d="M1056,914L1038,1007L1079,917Z" fill="#e4f4a6" stroke="#e4f4a6"/><path d="M1079,917L1038,1007L1126,1023Z" fill="#e0f3a8" stroke="#e0f3a8"/><path d="M1079,917L1126,1023L1202,939Z" fill="#d8efa9" stroke="#d8efa9"/><path d="M1202,939L1126,1023L1222,1011Z" fill="#d0ecaa" stroke="#d0ecaa"/><path d="M1202,939L1222,1011L1303,914Z" fill="#c5e8a9" stroke="#c5e8a9"/><path d="M1303,914L1222,1011L1300,1034Z" fill="#bfe6ab" stroke="#bfe6ab"/><path d="M1303,914L1300,1034L1346,1021Z" fill="#b8e3ab" stroke="#b8e3ab"/><path d="M1303,914L1346,1021L1398,917Z" fill="#b2e0aa" stroke="#b2e0aa"/><path d="M1398,917L1346,1021L1438,989Z" fill="#acd9ad" stroke="#acd9ad"/><path d="M1398,917L1438,989L1453,963Z" fill="#a7d4af" stroke="#a7d4af"/><path d="M1453,963L1438,989L1568,1001Z" fill="#9fcbb4" stroke="#9fcbb4"/><path d="M1453,963L1568,1001L1532,917Z" fill="#9bc7b5" stroke="#9bc7b5"/><path d="M1532,917L1568,1001L1642,960Z" fill="#9ebdb3" stroke="#9ebdb3"/><path d="M1642,960L1568,1001L1622,1030Z" fill="#a1b9b2" stroke="#a1b9b2"/><path d="M1642,960L1622,1030L1714,1018Z" fill="#a7b1af" stroke="#a7b1af"/><path d="M1642,960L1714,1018L1763,908Z" fill="#acaaaa" stroke="#acaaaa"/><path d="M1763,908L1714,1018L1806,966Z" fill="#b3a2a6" stroke="#b3a2a6"/><path d="M1806,966L1714,1018L1807,1043Z" fill="#b4a0a6" stroke="#b4a0a6"/><path d="M1806,966L1807,1043L1892,1044Z" fill="#bb97a3" stroke="#bb97a3"/><path d="M1806,966L1892,1044L1899,914Z" fill="#bf939f" stroke="#bf939f"/><path d="M1899,914L1892,1044L1974,1006Z" fill="#c58b9c" stroke="#c58b9c"/><path d="M1899,914L1974,1006L1975,929Z" fill="#c88698" stroke="#c88698"/><path d="M-29,1032L-37,1139L41,1080Z" fill="#cb807c" stroke="#cb807c"/><path d="M-29,1032L41,1080L45,992Z" fill="#d1837b" stroke="#d1837b"/><path d="M45,992L41,1080L117,1022Z" fill="#d88b7d" stroke="#d88b7d"/><path d="M117,1022L41,1080L168,1092Z" fill="#de927f" stroke="#de927f"/><path d="M117,1022L168,1092L231,1055Z" fill="#e79c82" stroke="#e79c82"/><path d="M231,1055L168,1092L252,1115Z" fill="#e9a282" stroke="#e9a282"/><path d="M231,1055L252,1115L324,1039Z" fill="#efa880" stroke="#efa880"/><path d="M324,1039L252,1115L334,1098Z" fill="#f0ac80" stroke="#f0ac80"/><path d="M324,1039L334,1098L425,1007Z" fill="#f8b37c" stroke="#f8b37c"/><path d="M425,1007L334,1098L406,1144Z" fill="#f7b77e" stroke="#f7b77e"/><path d="M425,1007L406,1144L503,1102Z" fill="#f8c182" stroke="#f8c182"/><path d="M425,1007L503,1102L519,1003Z" fill="#fcc783" stroke="#fcc783"/><path d="M519,1003L503,1102L549,1022Z" fill="#fdce87" stroke="#fdce87"/><path d="M549,1022L503,1102L599,1137Z" fill="#fbd28a" stroke="#fbd28a"/><path d="M549,1022L599,1137L677,1028Z" fill="#fedb8f" stroke="#fedb8f"/><path d="M677,1028L599,1137L699,1091Z" fill="#fbe195" stroke="#fbe195"/><path d="M677,1028L699,1091L757,1024Z" fill="#ffe89a" stroke="#ffe89a"/><path d="M757,1024L699,1091L722,1135Z" fill="#fcea9d" stroke="#fcea9d"/><path d="M757,1024L722,1135L823,1106Z" fill="#fbf0a1" stroke="#fbf0a1"/><path d="M757,1024L823,1106L857,1035Z" fill="#fcf2a2" stroke="#fcf2a2"/><path d="M857,1035L823,1106L946,1098Z" fill="#f6f6a4" stroke="#f6f6a4"/><path d="M857,1035L946,1098L926,1000Z" fill="#f6f7a5" stroke="#f6f7a5"/><path d="M926,1000L946,1098L1038,1007Z" fill="#f1faa6" stroke="#f1faa6"/><path d="M1038,1007L946,1098L1053,1143Z" fill="#e8f7a9" stroke="#e8f7a9"/><path d="M1038,1007L1053,1143L1105,1080Z" fill="#e1f4ab" stroke="#e1f4ab"/><path d="M1038,1007L1105,1080L1126,1023Z" fill="#dff2aa" stroke="#dff2aa"/><path d="M1126,1023L1105,1080L1219,1085Z" fill="#d5eead" stroke="#d5eead"/><path d="M1126,1023L1219,1085L1222,1011Z" fill="#cfecac" stroke="#cfecac"/><path d="M1222,1011L1219,1085L1300,1034Z" fill="#c4e8ac" stroke="#c4e8ac"/><path d="M1300,1034L1219,1085L1263,1101Z" fill="#c0e7ae" stroke="#c0e7ae"/><path d="M1300,1034L1263,1101L1367,1140Z" fill="#b5e3ae" stroke="#b5e3ae"/><path d="M1300,1034L1367,1140L1346,1021Z" fill="#b3e1ad" stroke="#b3e1ad"/><path d="M1346,1021L1367,1140L1457,1126Z" fill="#a8dab2" stroke="#a8dab2"/><path d="M1346,1021L1457,1126L1438,989Z" fill="#a9d6b1" stroke="#a9d6b1"/><path d="M1438,989L1457,1126L1555,1089Z" fill="#9fccb6" stroke="#9fccb6"/><path d="M1438,989L1555,1089L1568,1001Z" fill="#9bc6b7" stroke="#9bc6b7"/><path d="M1568,1001L1555,1089L1622,1030Z" fill="#9ebdb6" stroke="#9ebdb6"/><path d="M1622,1030L1555,1089L1612,1140Z" fill="#9dbbb6" stroke="#9dbbb6"/><path d="M1622,1030L1612,1140L1732,1102Z" fill="#a3b2b2" stroke="#a3b2b2"/><path d="M1622,1030L1732,1102L1714,1018Z" fill="#aaadae" stroke="#aaadae"/><path d="M1714,1018L1732,1102L1807,1043Z" fill="#b1a4aa" stroke="#b1a4aa"/><path d="M1807,1043L1732,1102L1809,1119Z" fill="#b29fa9" stroke="#b29fa9"/><path d="M1807,1043L1809,1119L1892,1044Z" fill="#ba97a5" stroke="#ba97a5"/><path d="M1892,1044L1809,1119L1910,1080Z" fill="#bd92a2" stroke="#bd92a2"/><path d="M1892,1044L1910,1080L1974,1006Z" fill="#c58a9d" stroke="#c58a9d"/><path d="M1974,1006L1910,1080L1992,1122Z" fill="#c8859c" stroke="#c8859c"/><path d="M-37,1139L-74,1387L-36,1298Z" fill="#ae8082" stroke="#ae8082"/><path d="M-37,1139L-36,1298L-9,1228Z" fill="#b78080" stroke="#b78080"/><path d="M-37,1139L-9,1228L71,1228Z" fill="#bf8281" stroke="#bf8281"/><path d="M-37,1139L71,1228L41,1080Z" fill="#c88480" stroke="#c88480"/><path d="M41,1080L71,1228L168,1092Z" fill="#d38f81" stroke="#d38f81"/><path d="M168,1092L71,1228L168,1217Z" fill="#d49684" stroke="#d49684"/><path d="M168,1092L168,1217L225,1200Z" fill="#dd9e86" stroke="#dd9e86"/><path d="M168,1092L225,1200L252,1115Z" fill="#e3a284" stroke="#e3a284"/><path d="M252,1115L225,1200L314,1180Z" fill="#e4a884" stroke="#e4a884"/><path d="M252,1115L314,1180L334,1098Z" fill="#eaac81" stroke="#eaac81"/><path d="M334,1098L314,1180L406,1144Z" fill="#eeb280" stroke="#eeb280"/><path d="M406,1144L314,1180L414,1192Z" fill="#ecb680" stroke="#ecb680"/><path d="M406,1144L414,1192L470,1187Z" fill="#edbe84" stroke="#edbe84"/><path d="M406,1144L470,1187L503,1102Z" fill="#f2c385" stroke="#f2c385"/><path d="M503,1102L470,1187L599,1137Z" fill="#f3ce8a" stroke="#f3ce8a"/><path d="M599,1137L470,1187L608,1201Z" fill="#f0d48e" stroke="#f0d48e"/><path d="M599,1137L608,1201L647,1207Z" fill="#f0dc94" stroke="#f0dc94"/><path d="M599,1137L647,1207L722,1135Z" fill="#f2e198" stroke="#f2e198"/><path d="M599,1137L722,1135L699,1091Z" fill="#f7e398" stroke="#f7e398"/><path d="M722,1135L647,1207L731,1214Z" fill="#f0e79d" stroke="#f0e79d"/><path d="M722,1135L731,1214L816,1199Z" fill="#f0eea3" stroke="#f0eea3"/><path d="M722,1135L816,1199L823,1106Z" fill="#f3f1a4" stroke="#f3f1a4"/><path d="M823,1106L816,1199L900,1171Z" fill="#eef4a6" stroke="#eef4a6"/><path d="M823,1106L900,1171L946,1098Z" fill="#eff6a7" stroke="#eff6a7"/><path d="M946,1098L900,1171L1016,1174Z" fill="#e9faaa" stroke="#e9faaa"/><path d="M946,1098L1016,1174L1053,1143Z" fill="#e2f7ab" stroke="#e2f7ab"/><path d="M1053,1143L1016,1174L1087,1235Z" fill="#d6f5ae" stroke="#d6f5ae"/><path d="M1053,1143L1087,1235L1206,1183Z" fill="#cbf1b0" stroke="#cbf1b0"/><path d="M1053,1143L1206,1183L1105,1080Z" fill="#d1f0ae" stroke="#d1f0ae"/><path d="M1105,1080L1206,1183L1219,1085Z" fill="#caedaf" stroke="#caedaf"/><path d="M1219,1085L1206,1183L1263,1101Z" fill="#c0e9af" stroke="#c0e9af"/><path d="M1263,1101L1206,1183L1302,1224Z" fill="#b5e7b1" stroke="#b5e7b1"/><path d="M1263,1101L1302,1224L1367,1140Z" fill="#ade3b1" stroke="#ade3b1"/><path d="M1367,1140L1302,1224L1382,1223Z" fill="#a1e0b3" stroke="#a1e0b3"/><path d="M1367,1140L1382,1223L1435,1184Z" fill="#9dd9b5" stroke="#9dd9b5"/><path d="M1367,1140L1435,1184L1457,1126Z" fill="#9ed5b5" stroke="#9ed5b5"/><path d="M1457,1126L1435,1184L1525,1196Z" fill="#94cdb9" stroke="#94cdb9"/><path d="M1457,1126L1525,1196L1555,1089Z" fill="#92c7ba" stroke="#92c7ba"/><path d="M1555,1089L1525,1196L1612,1140Z" fill="#92c0ba" stroke="#92c0ba"/><path d="M1612,1140L1525,1196L1630,1183Z" fill="#91bcba" stroke="#91bcba"/><path d="M1612,1140L1630,1183L1732,1102Z" fill="#9db2b4" stroke="#9db2b4"/><path d="M1732,1102L1630,1183L1747,1234Z" fill="#9eabb2" stroke="#9eabb2"/><path d="M1732,1102L1747,1234L1809,1119Z" fill="#a8a2ac" stroke="#a8a2ac"/><path d="M1809,1119L1747,1234L1837,1207Z" fill="#a89dab" stroke="#a89dab"/><path d="M1809,1119L1837,1207L1910,1080Z" fill="#b495a6" stroke="#b495a6"/><path d="M1910,1080L1837,1207L1948,1210Z" fill="#b68ea3" stroke="#b68ea3"/><path d="M1910,1080L1948,1210L1992,1122Z" fill="#bf869f" stroke="#bf869f"/><path d="M1992,1122L1948,1210L2008,1199Z" fill="#be819e" stroke="#be819e"/><path d="M-9,1228L-36,1298L67,1280Z" fill="#b78183" stroke="#b78183"/><path d="M-9,1228L67,1280L71,1228Z" fill="#be8784" stroke="#be8784"/><path d="M71,1228L67,1280L168,1217Z" fill="#c79086" stroke="#c79086"/><path d="M168,1217L67,1280L105,1322Z" fill="#c59287" stroke="#c59287"/><path d="M168,1217L105,1322L237,1321Z" fill="#cb9a89" stroke="#cb9a89"/><path d="M168,1217L237,1321L225,1200Z" fill="#d5a188" stroke="#d5a188"/><path d="M225,1200L237,1321L316,1270Z" fill="#d7a787" stroke="#d7a787"/><path d="M225,1200L316,1270L314,1180Z" fill="#dfaa85" stroke="#dfaa85"/><path d="M314,1180L316,1270L414,1192Z" fill="#e4b283" stroke="#e4b283"/><path d="M414,1192L316,1270L430,1293Z" fill="#e3b783" stroke="#e3b783"/><path d="M414,1192L430,1293L470,1288Z" fill="#e3bf87" stroke="#e3bf87"/><path d="M414,1192L470,1288L470,1187Z" fill="#e8c287" stroke="#e8c287"/><path d="M470,1187L470,1288L608,1201Z" fill="#e9cd8d" stroke="#e9cd8d"/><path d="M608,1201L470,1288L592,1311Z" fill="#e5d391" stroke="#e5d391"/><path d="M608,1201L592,1311L647,1207Z" fill="#e9dc96" stroke="#e9dc96"/><path d="M647,1207L592,1311L686,1297Z" fill="#e5df9a" stroke="#e5df9a"/><path d="M647,1207L686,1297L731,1214Z" fill="#e9e59e" stroke="#e9e59e"/><path d="M731,1214L686,1297L768,1282Z" fill="#e6eba3" stroke="#e6eba3"/><path d="M731,1214L768,1282L816,1199Z" fill="#eaf0a6" stroke="#eaf0a6"/><path d="M816,1199L768,1282L814,1315Z" fill="#e4f1a9" stroke="#e4f1a9"/><path d="M816,1199L814,1315L928,1309Z" fill="#dff4ab" stroke="#dff4ab"/><path d="M816,1199L928,1309L900,1171Z" fill="#e4f6aa" stroke="#e4f6aa"/><path d="M900,1171L928,1309L1008,1282Z" fill="#dcf9ad" stroke="#dcf9ad"/><path d="M900,1171L1008,1282L1016,1174Z" fill="#def9ad" stroke="#def9ad"/><path d="M1016,1174L1008,1282L1087,1235Z" fill="#d2f5af" stroke="#d2f5af"/><path d="M1087,1235L1008,1282L1131,1295Z" fill="#c8f3b2" stroke="#c8f3b2"/><path d="M1087,1235L1131,1295L1206,1183Z" fill="#c1efb3" stroke="#c1efb3"/><path d="M1206,1183L1131,1295L1236,1279Z" fill="#b7ecb4" stroke="#b7ecb4"/><path d="M1206,1183L1236,1279L1302,1224Z" fill="#b0e8b3" stroke="#b0e8b3"/><path d="M1302,1224L1236,1279L1306,1263Z" fill="#a7e5b4" stroke="#a7e5b4"/><path d="M1302,1224L1306,1263L1382,1223Z" fill="#a0e2b4" stroke="#a0e2b4"/><path d="M1382,1223L1306,1263L1397,1326Z" fill="#97deb6" stroke="#97deb6"/><path d="M1382,1223L1397,1326L1484,1294Z" fill="#8dd5ba" stroke="#8dd5ba"/><path d="M1382,1223L1484,1294L1435,1184Z" fill="#92d3b9" stroke="#92d3b9"/><path d="M1435,1184L1484,1294L1525,1196Z" fill="#8cccbc" stroke="#8cccbc"/><path d="M1525,1196L1484,1294L1523,1282Z" fill="#85c8bf" stroke="#85c8bf"/><path d="M1525,1196L1523,1282L1613,1277Z" fill="#84c1bf" stroke="#84c1bf"/><path d="M1525,1196L1613,1277L1630,1183Z" fill="#8cbcbb" stroke="#8cbcbb"/><path d="M1630,1183L1613,1277L1735,1267Z" fill="#91b1b7" stroke="#91b1b7"/><path d="M1630,1183L1735,1267L1747,1234Z" fill="#98abb3" stroke="#98abb3"/><path d="M1747,1234L1735,1267L1855,1293Z" fill="#9ca0af" stroke="#9ca0af"/><path d="M1747,1234L1855,1293L1837,1207Z" fill="#a29bac" stroke="#a29bac"/><path d="M1837,1207L1855,1293L1900,1255Z" fill="#a793a9" stroke="#a793a9"/><path d="M1837,1207L1900,1255L1948,1210Z" fill="#ae8ea6" stroke="#ae8ea6"/><path d="M1948,1210L1900,1255L2031,1303Z" fill="#b285a2" stroke="#b285a2"/><path d="M1948,1210L2031,1303L2008,1199Z" fill="#b8809f" stroke="#b8809f"/><path d="M-36,1298L-74,1387L53,1368Z" fill="#a37b83" stroke="#a37b83"/><path d="M-36,1298L53,1368L67,1280Z" fill="#b18284" stroke="#b18284"/><path d="M67,1280L53,1368L105,1322Z" fill="#b68986" stroke="#b68986"/><path d="M105,1322L53,1368L137,1382Z" fill="#b38b87" stroke="#b38b87"/><path d="M105,1322L137,1382L237,1321Z" fill="#bf9689" stroke="#bf9689"/><path d="M237,1321L137,1382L239,1360Z" fill="#c29c89" stroke="#c29c89"/><path d="M237,1321L239,1360L322,1386Z" fill="#c6a387" stroke="#c6a387"/><path d="M237,1321L322,1386L316,1270Z" fill="#cea887" stroke="#cea887"/><path d="M316,1270L322,1386L401,1386Z" fill="#cfad85" stroke="#cfad85"/><path d="M316,1270L401,1386L430,1293Z" fill="#d8b484" stroke="#d8b484"/><path d="M430,1293L401,1386L470,1288Z" fill="#d7bc88" stroke="#d7bc88"/><path d="M470,1288L401,1386L517,1400Z" fill="#d1bf8a" stroke="#d1bf8a"/><path d="M470,1288L517,1400L592,1311Z" fill="#d8cb8f" stroke="#d8cb8f"/><path d="M592,1311L517,1400L597,1411Z" fill="#d1d092" stroke="#d1d092"/><path d="M592,1311L597,1411L692,1363Z" fill="#d3d898" stroke="#d3d898"/><path d="M592,1311L692,1363L686,1297Z" fill="#dbde9c" stroke="#dbde9c"/><path d="M686,1297L692,1363L768,1282Z" fill="#dde6a2" stroke="#dde6a2"/><path d="M768,1282L692,1363L741,1400Z" fill="#d6e7a4" stroke="#d6e7a4"/><path d="M768,1282L741,1400L814,1315Z" fill="#d9eda8" stroke="#d9eda8"/><path d="M814,1315L741,1400L864,1390Z" fill="#d0eca9" stroke="#d0eca9"/><path d="M814,1315L864,1390L928,1309Z" fill="#d2f2ab" stroke="#d2f2ab"/><path d="M928,1309L864,1390L926,1409Z" fill="#caf2ac" stroke="#caf2ac"/><path d="M928,1309L926,1409L1023,1390Z" fill="#c6f5ae" stroke="#c6f5ae"/><path d="M928,1309L1023,1390L1008,1282Z" fill="#caf6af" stroke="#caf6af"/><path d="M1008,1282L1023,1390L1087,1369Z" fill="#bff1b1" stroke="#bff1b1"/><path d="M1008,1282L1087,1369L1131,1295Z" fill="#bff1b2" stroke="#bff1b2"/><path d="M1131,1295L1087,1369L1205,1344Z" fill="#b1ebb4" stroke="#b1ebb4"/><path d="M1131,1295L1205,1344L1236,1279Z" fill="#aeeab4" stroke="#aeeab4"/><path d="M1236,1279L1205,1344L1258,1402Z" fill="#a0e5b4" stroke="#a0e5b4"/><path d="M1236,1279L1258,1402L1306,1263Z" fill="#9fe4b5" stroke="#9fe4b5"/><path d="M1306,1263L1258,1402L1397,1326Z" fill="#92dfb5" stroke="#92dfb5"/><path d="M1397,1326L1258,1402L1400,1378Z" fill="#85dab5" stroke="#85dab5"/><path d="M1397,1326L1400,1378L1454,1346Z" fill="#80d1b9" stroke="#80d1b9"/><path d="M1397,1326L1454,1346L1484,1294Z" fill="#82cebb" stroke="#82cebb"/><path d="M1484,1294L1454,1346L1576,1393Z" fill="#75c4bf" stroke="#75c4bf"/><path d="M1484,1294L1576,1393L1523,1282Z" fill="#76c2c0" stroke="#76c2c0"/><path d="M1523,1282L1576,1393L1613,1277Z" fill="#7abcbe" stroke="#7abcbe"/><path d="M1613,1277L1576,1393L1643,1351Z" fill="#7ab5bc" stroke="#7ab5bc"/><path d="M1613,1277L1643,1351L1735,1267Z" fill="#89afb8" stroke="#89afb8"/><path d="M1735,1267L1643,1351L1748,1395Z" fill="#86a7b5" stroke="#86a7b5"/><path d="M1735,1267L1748,1395L1839,1353Z" fill="#8e9cb0" stroke="#8e9cb0"/><path d="M1735,1267L1839,1353L1855,1293Z" fill="#9899ae" stroke="#9899ae"/><path d="M1855,1293L1839,1353L1919,1414Z" fill="#968ea9" stroke="#968ea9"/><path d="M1855,1293L1919,1414L1900,1255Z" fill="#9e8ca8" stroke="#9e8ca8"/><path d="M1900,1255L1919,1414L2031,1303Z" fill="#a583a4" stroke="#a583a4"/><path d="M2031,1303L1919,1414L2036,1361Z" fill="#a37ba0" stroke="#a37ba0"/><path d="M-74,1387L-77,2198L-69,1628Z" fill="#674b8c" stroke="#674b8c"/><path d="M-74,1387L-69,1628L-61,1590Z" fill="#7b6b85" stroke="#7b6b85"/><path d="M-74,1387L-61,1590L-28,1484Z" fill="#837382" stroke="#837382"/><path d="M-74,1387L-28,1484L26,1453Z" fill="#917683" stroke="#917683"/><path d="M-74,1387L26,1453L53,1368Z" fill="#9c7984" stroke="#9c7984"/><path d="M53,1368L26,1453L115,1449Z" fill="#a18286" stroke="#a18286"/><path d="M53,1368L115,1449L137,1382Z" fill="#ab8987" stroke="#ab8987"/><path d="M137,1382L115,1449L194,1434Z" fill="#ad8f89" stroke="#ad8f89"/><path d="M137,1382L194,1434L239,1360Z" fill="#b9978a" stroke="#b9978a"/><path d="M239,1360L194,1434L322,1386Z" fill="#be9f88" stroke="#be9f88"/><path d="M322,1386L194,1434L313,1492Z" fill="#b7a088" stroke="#b7a088"/><path d="M322,1386L313,1492L418,1457Z" fill="#bca885" stroke="#bca885"/><path d="M322,1386L418,1457L401,1386Z" fill="#c5ae84" stroke="#c5ae84"/><path d="M401,1386L418,1457L517,1400Z" fill="#c6b989" stroke="#c6b989"/><path d="M517,1400L418,1457L515,1468Z" fill="#c2be8c" stroke="#c2be8c"/><path d="M517,1400L515,1468L546,1470Z" fill="#c2c48f" stroke="#c2c48f"/><path d="M517,1400L546,1470L597,1411Z" fill="#c6ca91" stroke="#c6ca91"/><path d="M597,1411L546,1470L636,1469Z" fill="#c2cf95" stroke="#c2cf95"/><path d="M597,1411L636,1469L692,1363Z" fill="#c9d79a" stroke="#c9d79a"/><path d="M692,1363L636,1469L741,1400Z" fill="#cadea0" stroke="#cadea0"/><path d="M741,1400L636,1469L727,1493Z" fill="#c2dda1" stroke="#c2dda1"/><path d="M741,1400L727,1493L830,1486Z" fill="#c1e5a8" stroke="#c1e5a8"/><path d="M741,1400L830,1486L864,1390Z" fill="#c5eaaa" stroke="#c5eaaa"/><path d="M864,1390L830,1486L915,1438Z" fill="#beecac" stroke="#beecac"/><path d="M864,1390L915,1438L926,1409Z" fill="#c1efad" stroke="#c1efad"/><path d="M926,1409L915,1438L1014,1469Z" fill="#b9f0ae" stroke="#b9f0ae"/><path d="M926,1409L1014,1469L1023,1390Z" fill="#b7f0b0" stroke="#b7f0b0"/><path d="M1023,1390L1014,1469L1087,1369Z" fill="#b2edb1" stroke="#b2edb1"/><path d="M1087,1369L1014,1469L1131,1480Z" fill="#a6e9b2" stroke="#a6e9b2"/><path d="M1087,1369L1131,1480L1205,1344Z" fill="#a5e8b4" stroke="#a5e8b4"/><path d="M1205,1344L1131,1480L1202,1480Z" fill="#97e3b5" stroke="#97e3b5"/><path d="M1205,1344L1202,1480L1258,1402Z" fill="#94e2b5" stroke="#94e2b5"/><path d="M1258,1402L1202,1480L1303,1491Z" fill="#85ddb5" stroke="#85ddb5"/><path d="M1258,1402L1303,1491L1357,1475Z" fill="#7cd9b5" stroke="#7cd9b5"/><path d="M1258,1402L1357,1475L1400,1378Z" fill="#7ed9b5" stroke="#7ed9b5"/><path d="M1400,1378L1357,1475L1497,1462Z" fill="#6fccba" stroke="#6fccba"/><path d="M1400,1378L1497,1462L1454,1346Z" fill="#73cabc" stroke="#73cabc"/><path d="M1454,1346L1497,1462L1576,1393Z" fill="#6ac0c0" stroke="#6ac0c0"/><path d="M1576,1393L1497,1462L1567,1465Z" fill="#5fb9c1" stroke="#5fb9c1"/><path d="M1576,1393L1567,1465L1671,1484Z" fill="#65b0bc" stroke="#65b0bc"/><path d="M1576,1393L1671,1484L1643,1351Z" fill="#6faebb" stroke="#6faebb"/><path d="M1643,1351L1671,1484L1748,1395Z" fill="#76a5b7" stroke="#76a5b7"/><path d="M1748,1395L1671,1484L1726,1484Z" fill="#709fb5" stroke="#709fb5"/><path d="M1748,1395L1726,1484L1835,1469Z" fill="#7897b1" stroke="#7897b1"/><path d="M1748,1395L1835,1469L1839,1353Z" fill="#8494ae" stroke="#8494ae"/><path d="M1839,1353L1835,1469L1919,1414Z" fill="#898baa" stroke="#898baa"/><path d="M1919,1414L1835,1469L1939,1481Z" fill="#8584a8" stroke="#8584a8"/><path d="M1919,1414L1939,1481L1969,1500Z" fill="#887ca5" stroke="#887ca5"/><path d="M1919,1414L1969,1500L2036,1361Z" fill="#947aa2" stroke="#947aa2"/><path d="M2036,1361L1969,1500L2000,1528Z" fill="#8f75a1" stroke="#8f75a1"/><path d="M2036,1361L2000,1528L2037,1633Z" fill="#8a70a0" stroke="#8a70a0"/><path d="M-28,1484L-61,1590L43,1526Z" fill="#836c87" stroke="#836c87"/><path d="M-28,1484L43,1526L26,1453Z" fill="#8d7684" stroke="#8d7684"/><path d="M26,1453L43,1526L115,1449Z" fill="#967e86" stroke="#967e86"/><path d="M115,1449L43,1526L151,1548Z" fill="#978189" stroke="#978189"/><path d="M115,1449L151,1548L194,1434Z" fill="#a38d89" stroke="#a38d89"/><path d="M194,1434L151,1548L222,1578Z" fill="#a18c8d" stroke="#a18c8d"/><path d="M194,1434L222,1578L313,1492Z" fill="#a9968a" stroke="#a9968a"/><path d="M313,1492L222,1578L341,1545Z" fill="#a7968b" stroke="#a7968b"/><path d="M313,1492L341,1545L394,1539Z" fill="#aea088" stroke="#aea088"/><path d="M313,1492L394,1539L418,1457Z" fill="#b4a786" stroke="#b4a786"/><path d="M418,1457L394,1539L515,1468Z" fill="#b8b489" stroke="#b8b489"/><path d="M515,1468L394,1539L519,1569Z" fill="#b3b38e" stroke="#b3b38e"/><path d="M515,1468L519,1569L546,1470Z" fill="#b8bf90" stroke="#b8bf90"/><path d="M546,1470L519,1569L607,1537Z" fill="#b5c194" stroke="#b5c194"/><path d="M546,1470L607,1537L636,1469Z" fill="#bacc96" stroke="#bacc96"/><path d="M636,1469L607,1537L639,1533Z" fill="#b7cd9b" stroke="#b7cd9b"/><path d="M636,1469L639,1533L727,1493Z" fill="#b9d49e" stroke="#b9d49e"/><path d="M727,1493L639,1533L699,1632Z" fill="#b2cea4" stroke="#b2cea4"/><path d="M727,1493L699,1632L779,1546Z" fill="#b1d3aa" stroke="#b1d3aa"/><path d="M727,1493L779,1546L830,1486Z" fill="#b8e0aa" stroke="#b8e0aa"/><path d="M830,1486L779,1546L862,1540Z" fill="#b2e0ad" stroke="#b2e0ad"/><path d="M830,1486L862,1540L915,1438Z" fill="#b5e9ac" stroke="#b5e9ac"/><path d="M915,1438L862,1540L970,1523Z" fill="#b0e9ae" stroke="#b0e9ae"/><path d="M915,1438L970,1523L1014,1469Z" fill="#b0eeaf" stroke="#b0eeaf"/><path d="M1014,1469L970,1523L1016,1562Z" fill="#a5e6b2" stroke="#a5e6b2"/><path d="M1014,1469L1016,1562L1131,1480Z" fill="#9ee5b3" stroke="#9ee5b3"/><path d="M1131,1480L1016,1562L1137,1565Z" fill="#94ddb6" stroke="#94ddb6"/><path d="M1131,1480L1137,1565L1202,1480Z" fill="#8edeb6" stroke="#8edeb6"/><path d="M1202,1480L1137,1565L1220,1531Z" fill="#86d9b7" stroke="#86d9b7"/><path d="M1202,1480L1220,1531L1303,1491Z" fill="#80d9b6" stroke="#80d9b6"/><path d="M1303,1491L1220,1531L1261,1568Z" fill="#78d3b8" stroke="#78d3b8"/><path d="M1303,1491L1261,1568L1371,1577Z" fill="#6dcdb9" stroke="#6dcdb9"/><path d="M1303,1491L1371,1577L1357,1475Z" fill="#6bd0b7" stroke="#6bd0b7"/><path d="M1357,1475L1371,1577L1463,1570Z" fill="#60c4bc" stroke="#60c4bc"/><path d="M1357,1475L1463,1570L1497,1462Z" fill="#60c3bc" stroke="#60c3bc"/><path d="M1497,1462L1463,1570L1548,1527Z" fill="#55b7c2" stroke="#55b7c2"/><path d="M1497,1462L1548,1527L1567,1465Z" fill="#56b8c1" stroke="#56b8c1"/><path d="M1567,1465L1548,1527L1642,1568Z" fill="#56aac0" stroke="#56aac0"/><path d="M1567,1465L1642,1568L1671,1484Z" fill="#5da7bc" stroke="#5da7bc"/><path d="M1671,1484L1642,1568L1719,1541Z" fill="#5f9bba" stroke="#5f9bba"/><path d="M1671,1484L1719,1541L1726,1484Z" fill="#669cb7" stroke="#669cb7"/><path d="M1726,1484L1719,1541L1835,1469Z" fill="#6d94b3" stroke="#6d94b3"/><path d="M1835,1469L1719,1541L1847,1558Z" fill="#6f8ab1" stroke="#6f8ab1"/><path d="M1835,1469L1847,1558L1928,1547Z" fill="#7680ac" stroke="#7680ac"/><path d="M1835,1469L1928,1547L1939,1481Z" fill="#7e7fa9" stroke="#7e7fa9"/><path d="M1939,1481L1928,1547L1969,1500Z" fill="#8177a6" stroke="#8177a6"/><path d="M1969,1500L1928,1547L2000,1528Z" fill="#8171a6" stroke="#8171a6"/><path d="M-61,1590L-69,1628L56,1669Z" fill="#735c8c" stroke="#735c8c"/><path d="M-61,1590L56,1669L43,1526Z" fill="#7e648c" stroke="#7e648c"/><path d="M43,1526L56,1669L151,1548Z" fill="#8a718d" stroke="#8a718d"/><path d="M151,1548L56,1669L158,1638Z" fill="#8a7291" stroke="#8a7291"/><path d="M151,1548L158,1638L210,1625Z" fill="#937c92" stroke="#937c92"/><path d="M151,1548L210,1625L222,1578Z" fill="#998391" stroke="#998391"/><path d="M222,1578L210,1625L293,1681Z" fill="#968192" stroke="#968192"/><path d="M222,1578L293,1681L341,1545Z" fill="#9e8b8f" stroke="#9e8b8f"/><path d="M341,1545L293,1681L381,1636Z" fill="#9f8f8f" stroke="#9f8f8f"/><path d="M341,1545L381,1636L394,1539Z" fill="#a99a8b" stroke="#a99a8b"/><path d="M394,1539L381,1636L519,1569Z" fill="#aaa28e" stroke="#aaa28e"/><path d="M519,1569L381,1636L494,1669Z" fill="#a4a194" stroke="#a4a194"/><path d="M519,1569L494,1669L544,1682Z" fill="#a3a899" stroke="#a3a899"/><path d="M519,1569L544,1682L607,1537Z" fill="#aab599" stroke="#aab599"/><path d="M607,1537L544,1682L699,1632Z" fill="#a8bba1" stroke="#a8bba1"/><path d="M607,1537L699,1632L639,1533Z" fill="#afc7a1" stroke="#afc7a1"/><path d="M779,1546L699,1632L757,1644Z" fill="#aacdae" stroke="#aacdae"/><path d="M779,1546L757,1644L879,1630Z" fill="#a7d2b2" stroke="#a7d2b2"/><path d="M779,1546L879,1630L862,1540Z" fill="#aad9b1" stroke="#aad9b1"/><path d="M862,1540L879,1630L970,1523Z" fill="#a8deb2" stroke="#a8deb2"/><path d="M970,1523L879,1630L993,1616Z" fill="#a1ddb5" stroke="#a1ddb5"/><path d="M970,1523L993,1616L1016,1562Z" fill="#9fdfb5" stroke="#9fdfb5"/><path d="M1016,1562L993,1616L1093,1619Z" fill="#93d7b9" stroke="#93d7b9"/><path d="M1016,1562L1093,1619L1137,1565Z" fill="#8fd7b9" stroke="#8fd7b9"/><path d="M1137,1565L1093,1619L1184,1631Z" fill="#83d0bc" stroke="#83d0bc"/><path d="M1137,1565L1184,1631L1220,1531Z" fill="#80d1bb" stroke="#80d1bb"/><path d="M1220,1531L1184,1631L1261,1568Z" fill="#78cebb" stroke="#78cebb"/><path d="M1261,1568L1184,1631L1291,1651Z" fill="#6ec6be" stroke="#6ec6be"/><path d="M1261,1568L1291,1651L1371,1577Z" fill="#65c5bd" stroke="#65c5bd"/><path d="M1371,1577L1291,1651L1406,1617Z" fill="#5bbdbf" stroke="#5bbdbf"/><path d="M1371,1577L1406,1617L1463,1570Z" fill="#57b9c1" stroke="#57b9c1"/><path d="M1463,1570L1406,1617L1497,1677Z" fill="#4dadc5" stroke="#4dadc5"/><path d="M1463,1570L1497,1677L1534,1626Z" fill="#46a6c8" stroke="#46a6c8"/><path d="M1463,1570L1534,1626L1548,1527Z" fill="#4cacc6" stroke="#4cacc6"/><path d="M1548,1527L1534,1626L1642,1568Z" fill="#4da4c5" stroke="#4da4c5"/><path d="M1642,1568L1534,1626L1665,1670Z" fill="#4b96c5" stroke="#4b96c5"/><path d="M1642,1568L1665,1670L1741,1639Z" fill="#528bc0" stroke="#528bc0"/><path d="M1642,1568L1741,1639L1719,1541Z" fill="#5a8fbc" stroke="#5a8fbc"/><path d="M1719,1541L1741,1639L1822,1618Z" fill="#5e83b9" stroke="#5e83b9"/><path d="M1719,1541L1822,1618L1847,1558Z" fill="#6783b5" stroke="#6783b5"/><path d="M1847,1558L1822,1618L1907,1627Z" fill="#6a75b2" stroke="#6a75b2"/><path d="M1847,1558L1907,1627L1928,1547Z" fill="#7174ae" stroke="#7174ae"/><path d="M1928,1547L1907,1627L2037,1633Z" fill="#7566ac" stroke="#7566ac"/><path d="M1928,1547L2037,1633L2000,1528Z" fill="#7d67a7" stroke="#7d67a7"/><path d="M-69,1628L-77,2198L-66,1724Z" fill="#763984" stroke="#763984"/><path d="M-69,1628L-66,1724L56,1669Z" fill="#6c558f" stroke="#6c558f"/><path d="M56,1669L-66,1724L66,1755Z" fill="#725291" stroke="#725291"/><path d="M56,1669L66,1755L142,1756Z" fill="#7d5b92" stroke="#7d5b92"/><path d="M56,1669L142,1756L158,1638Z" fill="#7f6695" stroke="#7f6695"/><path d="M158,1638L142,1756L232,1709Z" fill="#876d97" stroke="#876d97"/><path d="M158,1638L232,1709L210,1625Z" fill="#8e7896" stroke="#8e7896"/><path d="M210,1625L232,1709L293,1681Z" fill="#907b95" stroke="#907b95"/><path d="M293,1681L232,1709L345,1709Z" fill="#917c95" stroke="#917c95"/><path d="M293,1681L345,1709L381,1636Z" fill="#978692" stroke="#978692"/><path d="M381,1636L345,1709L429,1747Z" fill="#988892" stroke="#988892"/><path d="M381,1636L429,1747L494,1669Z" fill="#9b9295" stroke="#9b9295"/><path d="M494,1669L429,1747L462,1740Z" fill="#9d9197" stroke="#9d9197"/><path d="M494,1669L462,1740L544,1682Z" fill="#9a9b9b" stroke="#9a9b9b"/><path d="M544,1682L462,1740L591,1765Z" fill="#9f9b9b" stroke="#9f9b9b"/><path d="M544,1682L591,1765L668,1759Z" fill="#a1a5a1" stroke="#a1a5a1"/><path d="M544,1682L668,1759L699,1632Z" fill="#9db1a7" stroke="#9db1a7"/><path d="M699,1632L668,1759L722,1761Z" fill="#9fb4ad" stroke="#9fb4ad"/><path d="M699,1632L722,1761L757,1644Z" fill="#9fbfb1" stroke="#9fbfb1"/><path d="M757,1644L722,1761L838,1726Z" fill="#9ebfb5" stroke="#9ebfb5"/><path d="M757,1644L838,1726L879,1630Z" fill="#9ec9b6" stroke="#9ec9b6"/><path d="M879,1630L838,1726L928,1666Z" fill="#99cbb9" stroke="#99cbb9"/><path d="M879,1630L928,1666L993,1616Z" fill="#9bd4b8" stroke="#9bd4b8"/><path d="M928,1666L838,1726L941,1741Z" fill="#96c6ba" stroke="#96c6ba"/><path d="M928,1666L941,1741L1004,1707Z" fill="#92cabc" stroke="#92cabc"/><path d="M928,1666L1004,1707L993,1616Z" fill="#93d0bb" stroke="#93d0bb"/><path d="M993,1616L1004,1707L1093,1619Z" fill="#8dcfbc" stroke="#8dcfbc"/><path d="M1093,1619L1004,1707L1130,1722Z" fill="#81c7bf" stroke="#81c7bf"/><path d="M1093,1619L1130,1722L1184,1631Z" fill="#7bc7c0" stroke="#7bc7c0"/><path d="M1184,1631L1130,1722L1191,1704Z" fill="#72c0c2" stroke="#72c0c2"/><path d="M1184,1631L1191,1704L1291,1651Z" fill="#6cc0c1" stroke="#6cc0c1"/><path d="M1291,1651L1191,1704L1292,1762Z" fill="#61b7c3" stroke="#61b7c3"/><path d="M1291,1651L1292,1762L1355,1711Z" fill="#58b2c2" stroke="#58b2c2"/><path d="M1291,1651L1355,1711L1406,1617Z" fill="#55b7c1" stroke="#55b7c1"/><path d="M1406,1617L1355,1711L1435,1702Z" fill="#4cadc5" stroke="#4cadc5"/><path d="M1406,1617L1435,1702L1497,1677Z" fill="#47a8c8" stroke="#47a8c8"/><path d="M1497,1677L1435,1702L1533,1710Z" fill="#3d9ccc" stroke="#3d9ccc"/><path d="M1497,1677L1533,1710L1534,1626Z" fill="#3c9bcd" stroke="#3c9bcd"/><path d="M1534,1626L1533,1710L1665,1670Z" fill="#3f94ca" stroke="#3f94ca"/><path d="M1665,1670L1533,1710L1615,1761Z" fill="#4188c9" stroke="#4188c9"/><path d="M1665,1670L1615,1761L1702,1750Z" fill="#497ec4" stroke="#497ec4"/><path d="M1665,1670L1702,1750L1741,1639Z" fill="#4b7ec3" stroke="#4b7ec3"/><path d="M1741,1639L1702,1750L1853,1730Z" fill="#5372be" stroke="#5372be"/><path d="M1741,1639L1853,1730L1822,1618Z" fill="#5b73ba" stroke="#5b73ba"/><path d="M1822,1618L1853,1730L1907,1627Z" fill="#616bb6" stroke="#616bb6"/><path d="M1907,1627L1853,1730L1898,1743Z" fill="#5f61b6" stroke="#5f61b6"/><path d="M1907,1627L1898,1743L2026,1719Z" fill="#6559b3" stroke="#6559b3"/><path d="M1907,1627L2026,1719L2037,1633Z" fill="#7058ad" stroke="#7058ad"/><path d="M2037,1633L2026,1719L2031,1827Z" fill="#744caa" stroke="#744caa"/><path d="M2037,1633L2031,1827L2038,2211Z" fill="#88329e" stroke="#88329e"/><path d="M-66,1724L-77,2198L-35,1891Z" fill="#822a7e" stroke="#822a7e"/><path d="M-66,1724L-35,1891L-21,1812Z" fill="#753f88" stroke="#753f88"/><path d="M-66,1724L-21,1812L66,1755Z" fill="#74468d" stroke="#74468d"/><path d="M66,1755L-21,1812L73,1843Z" fill="#80478b" stroke="#80478b"/><path d="M66,1755L73,1843L142,1756Z" fill="#85538e" stroke="#85538e"/><path d="M142,1756L73,1843L155,1855Z" fill="#8e528d" stroke="#8e528d"/><path d="M142,1756L155,1855L190,1829Z" fill="#93598e" stroke="#93598e"/><path d="M142,1756L190,1829L232,1709Z" fill="#906593" stroke="#906593"/><path d="M232,1709L190,1829L346,1849Z" fill="#9a688f" stroke="#9a688f"/><path d="M232,1709L346,1849L345,1709Z" fill="#997590" stroke="#997590"/><path d="M345,1709L346,1849L420,1817Z" fill="#a3778c" stroke="#a3778c"/><path d="M345,1709L420,1817L429,1747Z" fill="#a0808f" stroke="#a0808f"/><path d="M429,1747L420,1817L462,1740Z" fill="#a28591" stroke="#a28591"/><path d="M462,1740L420,1817L499,1813Z" fill="#a68691" stroke="#a68691"/><path d="M462,1740L499,1813L591,1765Z" fill="#a49297" stroke="#a49297"/><path d="M591,1765L499,1813L590,1819Z" fill="#a99598" stroke="#a99598"/><path d="M591,1765L590,1819L673,1807Z" fill="#a99e9e" stroke="#a99e9e"/><path d="M591,1765L673,1807L668,1759Z" fill="#a6a4a3" stroke="#a6a4a3"/><path d="M668,1759L673,1807L722,1761Z" fill="#a7aaa7" stroke="#a7aaa7"/><path d="M722,1761L673,1807L790,1810Z" fill="#a9adaa" stroke="#a9adaa"/><path d="M722,1761L790,1810L838,1726Z" fill="#a4b7b1" stroke="#a4b7b1"/><path d="M838,1726L790,1810L830,1821Z" fill="#a5b6b1" stroke="#a5b6b1"/><path d="M838,1726L830,1821L947,1796Z" fill="#a1b9b3" stroke="#a1b9b3"/><path d="M838,1726L947,1796L941,1741Z" fill="#9bbfb7" stroke="#9bbfb7"/><path d="M941,1741L947,1796L1004,1707Z" fill="#97c3b9" stroke="#97c3b9"/><path d="M1004,1707L947,1796L997,1843Z" fill="#98bcb7" stroke="#98bcb7"/><path d="M1004,1707L997,1843L1145,1804Z" fill="#8eb8b9" stroke="#8eb8b9"/><path d="M1004,1707L1145,1804L1130,1722Z" fill="#82bbbd" stroke="#82bbbd"/><path d="M1130,1722L1145,1804L1194,1801Z" fill="#7cb2bd" stroke="#7cb2bd"/><path d="M1130,1722L1194,1801L1191,1704Z" fill="#76b7bf" stroke="#76b7bf"/><path d="M1191,1704L1194,1801L1292,1762Z" fill="#6eb1be" stroke="#6eb1be"/><path d="M1292,1762L1194,1801L1310,1843Z" fill="#6ca7bb" stroke="#6ca7bb"/><path d="M1292,1762L1310,1843L1389,1846Z" fill="#62a0ba" stroke="#62a0ba"/><path d="M1292,1762L1389,1846L1355,1711Z" fill="#5aa6bd" stroke="#5aa6bd"/><path d="M1355,1711L1389,1846L1435,1702Z" fill="#51a2c2" stroke="#51a2c2"/><path d="M1435,1702L1389,1846L1499,1842Z" fill="#5094c2" stroke="#5094c2"/><path d="M1435,1702L1499,1842L1533,1710Z" fill="#4493c8" stroke="#4493c8"/><path d="M1533,1710L1499,1842L1615,1761Z" fill="#4287c9" stroke="#4287c9"/><path d="M1615,1761L1499,1842L1589,1859Z" fill="#4a7dc4" stroke="#4a7dc4"/><path d="M1615,1761L1589,1859L1625,1847Z" fill="#4f76c1" stroke="#4f76c1"/><path d="M1615,1761L1625,1847L1702,1750Z" fill="#4f76c0" stroke="#4f76c0"/><path d="M1702,1750L1625,1847L1731,1835Z" fill="#566cbc" stroke="#566cbc"/><path d="M1702,1750L1731,1835L1797,1802Z" fill="#5b66b9" stroke="#5b66b9"/><path d="M1702,1750L1797,1802L1853,1730Z" fill="#5b66b9" stroke="#5b66b9"/><path d="M1853,1730L1797,1802L1893,1811Z" fill="#6559b3" stroke="#6559b3"/><path d="M1853,1730L1893,1811L1898,1743Z" fill="#6657b2" stroke="#6657b2"/><path d="M1898,1743L1893,1811L2031,1827Z" fill="#714aab" stroke="#714aab"/><path d="M1898,1743L2031,1827L2026,1719Z" fill="#7348ab" stroke="#7348ab"/><path d="M-21,1812L-35,1891L73,1843Z" fill="#813a86" stroke="#813a86"/><path d="M73,1843L-35,1891L73,1893Z" fill="#893b86" stroke="#893b86"/><path d="M73,1843L73,1893L132,1885Z" fill="#904487" stroke="#904487"/><path d="M73,1843L132,1885L155,1855Z" fill="#924a89" stroke="#924a89"/><path d="M155,1855L132,1885L208,1908Z" fill="#9c4e89" stroke="#9c4e89"/><path d="M155,1855L208,1908L190,1829Z" fill="#9c548b" stroke="#9c548b"/><path d="M190,1829L208,1908L306,1909Z" fill="#a35789" stroke="#a35789"/><path d="M190,1829L306,1909L346,1849Z" fill="#a46189" stroke="#a46189"/><path d="M346,1849L306,1909L400,1938Z" fill="#af6384" stroke="#af6384"/><path d="M346,1849L400,1938L420,1817Z" fill="#ad6d86" stroke="#ad6d86"/><path d="M420,1817L400,1938L479,1882Z" fill="#b07388" stroke="#b07388"/><path d="M420,1817L479,1882L499,1813Z" fill="#ab7f8e" stroke="#ab7f8e"/><path d="M499,1813L479,1882L590,1819Z" fill="#ad8893" stroke="#ad8893"/><path d="M590,1819L479,1882L594,1927Z" fill="#b28892" stroke="#b28892"/><path d="M590,1819L594,1927L700,1884Z" fill="#b39299" stroke="#b39299"/><path d="M590,1819L700,1884L673,1807Z" fill="#ae9c9f" stroke="#ae9c9f"/><path d="M673,1807L700,1884L790,1810Z" fill="#aea5a7" stroke="#aea5a7"/><path d="M790,1810L700,1884L745,1901Z" fill="#b2a3a7" stroke="#b2a3a7"/><path d="M790,1810L745,1901L830,1821Z" fill="#aeabac" stroke="#aeabac"/><path d="M830,1821L745,1901L832,1946Z" fill="#b3a4a9" stroke="#b3a4a9"/><path d="M830,1821L832,1946L961,1940Z" fill="#b0a6aa" stroke="#b0a6aa"/><path d="M830,1821L961,1940L947,1796Z" fill="#a7b0af" stroke="#a7b0af"/><path d="M947,1796L961,1940L994,1905Z" fill="#a7aeaf" stroke="#a7aeaf"/><path d="M947,1796L994,1905L997,1843Z" fill="#a1b2b2" stroke="#a1b2b2"/><path d="M997,1843L994,1905L1123,1919Z" fill="#9da8b1" stroke="#9da8b1"/><path d="M997,1843L1123,1919L1145,1804Z" fill="#91aab5" stroke="#91aab5"/><path d="M1145,1804L1123,1919L1209,1920Z" fill="#89a2b5" stroke="#89a2b5"/><path d="M1145,1804L1209,1920L1194,1801Z" fill="#80a6b8" stroke="#80a6b8"/><path d="M1194,1801L1209,1920L1296,1895Z" fill="#7b9eb5" stroke="#7b9eb5"/><path d="M1194,1801L1296,1895L1310,1843Z" fill="#72a0b8" stroke="#72a0b8"/><path d="M1310,1843L1296,1895L1400,1885Z" fill="#6996b6" stroke="#6996b6"/><path d="M1310,1843L1400,1885L1389,1846Z" fill="#6295b9" stroke="#6295b9"/><path d="M1389,1846L1400,1885L1499,1842Z" fill="#598bbd" stroke="#598bbd"/><path d="M1499,1842L1400,1885L1446,1926Z" fill="#5a84bc" stroke="#5a84bc"/><path d="M1499,1842L1446,1926L1537,1910Z" fill="#557cbe" stroke="#557cbe"/><path d="M1499,1842L1537,1910L1589,1859Z" fill="#4d78c2" stroke="#4d78c2"/><path d="M1589,1859L1537,1910L1622,1900Z" fill="#546fbd" stroke="#546fbd"/><path d="M1589,1859L1622,1900L1625,1847Z" fill="#556ebd" stroke="#556ebd"/><path d="M1625,1847L1622,1900L1740,1899Z" fill="#5d64b8" stroke="#5d64b8"/><path d="M1625,1847L1740,1899L1731,1835Z" fill="#5e63b7" stroke="#5e63b7"/><path d="M1731,1835L1740,1899L1797,1802Z" fill="#625db4" stroke="#625db4"/><path d="M1797,1802L1740,1899L1821,1922Z" fill="#6a54b0" stroke="#6a54b0"/><path d="M1797,1802L1821,1922L1893,1811Z" fill="#6c51af" stroke="#6c51af"/><path d="M1893,1811L1821,1922L1913,1914Z" fill="#7545a9" stroke="#7545a9"/><path d="M1893,1811L1913,1914L2031,1827Z" fill="#793fa7" stroke="#793fa7"/><path d="M2031,1827L1913,1914L2005,1934Z" fill="#8233a1" stroke="#8233a1"/><path d="M2031,1827L2005,1934L2014,2003Z" fill="#8a2d9c" stroke="#8a2d9c"/><path d="M2031,1827L2014,2003L2038,2211Z" fill="#971e95" stroke="#971e95"/><path d="M-35,1891L-77,2198L-15,1968Z" fill="#8f1d78" stroke="#8f1d78"/><path d="M-35,1891L-15,1968L73,1893Z" fill="#892f82" stroke="#892f82"/><path d="M73,1893L-15,1968L69,2026Z" fill="#942e7f" stroke="#942e7f"/><path d="M73,1893L69,2026L114,2000Z" fill="#9b3380" stroke="#9b3380"/><path d="M73,1893L114,2000L132,1885Z" fill="#993e84" stroke="#993e84"/><path d="M132,1885L114,2000L189,1996Z" fill="#a33e83" stroke="#a33e83"/><path d="M132,1885L189,1996L208,1908Z" fill="#a34886" stroke="#a34886"/><path d="M208,1908L189,1996L320,1981Z" fill="#ad4c83" stroke="#ad4c83"/><path d="M208,1908L320,1981L306,1909Z" fill="#ad5584" stroke="#ad5584"/><path d="M306,1909L320,1981L400,1938Z" fill="#b35b81" stroke="#b35b81"/><path d="M400,1938L320,1981L423,2016Z" fill="#bb5a7d" stroke="#bb5a7d"/><path d="M400,1938L423,2016L483,2015Z" fill="#bd6180" stroke="#bd6180"/><path d="M400,1938L483,2015L479,1882Z" fill="#b86c85" stroke="#b86c85"/><path d="M479,1882L483,2015L566,1993Z" fill="#bc7288" stroke="#bc7288"/><path d="M479,1882L566,1993L594,1927Z" fill="#ba7d8d" stroke="#ba7d8d"/><path d="M594,1927L566,1993L685,1971Z" fill="#be8292" stroke="#be8292"/><path d="M594,1927L685,1971L700,1884Z" fill="#b98e99" stroke="#b98e99"/><path d="M700,1884L685,1971L745,1901Z" fill="#b9969f" stroke="#b9969f"/><path d="M745,1901L685,1971L790,2009Z" fill="#be939f" stroke="#be939f"/><path d="M745,1901L790,2009L832,1946Z" fill="#bb99a3" stroke="#bb99a3"/><path d="M832,1946L790,2009L844,1992Z" fill="#bd96a3" stroke="#bd96a3"/><path d="M832,1946L844,1992L931,2005Z" fill="#ba99a4" stroke="#ba99a4"/><path d="M832,1946L931,2005L961,1940Z" fill="#b69ea7" stroke="#b69ea7"/><path d="M961,1940L931,2005L1043,2010Z" fill="#b29ca7" stroke="#b29ca7"/><path d="M961,1940L1043,2010L994,1905Z" fill="#aba0aa" stroke="#aba0aa"/><path d="M994,1905L1043,2010L1123,1919Z" fill="#a19ead" stroke="#a19ead"/><path d="M1123,1919L1043,2010L1081,2007Z" fill="#a197ab" stroke="#a197ab"/><path d="M1123,1919L1081,2007L1168,1994Z" fill="#9a95ad" stroke="#9a95ad"/><path d="M1123,1919L1168,1994L1209,1920Z" fill="#9097b0" stroke="#9097b0"/><path d="M1209,1920L1168,1994L1308,1993Z" fill="#888eae" stroke="#888eae"/><path d="M1209,1920L1308,1993L1296,1895Z" fill="#7c91b1" stroke="#7c91b1"/><path d="M1296,1895L1308,1993L1400,1885Z" fill="#6f8eb2" stroke="#6f8eb2"/><path d="M1400,1885L1308,1993L1391,2031Z" fill="#7083b0" stroke="#7083b0"/><path d="M1400,1885L1391,2031L1446,1926Z" fill="#677fb5" stroke="#677fb5"/><path d="M1446,1926L1391,2031L1501,2015Z" fill="#6873b4" stroke="#6873b4"/><path d="M1446,1926L1501,2015L1537,1910Z" fill="#5c72ba" stroke="#5c72ba"/><path d="M1537,1910L1501,2015L1591,1999Z" fill="#5b68ba" stroke="#5b68ba"/><path d="M1537,1910L1591,1999L1622,1900Z" fill="#5a68ba" stroke="#5a68ba"/><path d="M1622,1900L1591,1999L1658,1989Z" fill="#625db5" stroke="#625db5"/><path d="M1622,1900L1658,1989L1740,1899Z" fill="#635bb4" stroke="#635bb4"/><path d="M1740,1899L1658,1989L1753,2034Z" fill="#6e4eae" stroke="#6e4eae"/><path d="M1740,1899L1753,2034L1821,1922Z" fill="#7249ab" stroke="#7249ab"/><path d="M1821,1922L1753,2034L1843,1996Z" fill="#7a3fa7" stroke="#7a3fa7"/><path d="M1821,1922L1843,1996L1913,1914Z" fill="#7b3da6" stroke="#7b3da6"/><path d="M1913,1914L1843,1996L1928,1992Z" fill="#8235a2" stroke="#8235a2"/><path d="M1913,1914L1928,1992L2005,1934Z" fill="#86309f" stroke="#86309f"/><path d="M2005,1934L1928,1992L2014,2003Z" fill="#8d269b" stroke="#8d269b"/><path d="M-15,1968L-77,2198L-24,2121Z" fill="#991172" stroke="#991172"/><path d="M-15,1968L-24,2121L19,2070Z" fill="#981877" stroke="#981877"/><path d="M-15,1968L19,2070L69,2026Z" fill="#99227a" stroke="#99227a"/><path d="M69,2026L19,2070L128,2126Z" fill="#a72178" stroke="#a72178"/><path d="M69,2026L128,2126L114,2000Z" fill="#a8297a" stroke="#a8297a"/><path d="M114,2000L128,2126L189,1996Z" fill="#ac317d" stroke="#ac317d"/><path d="M189,1996L128,2126L240,2067Z" fill="#b5347d" stroke="#b5347d"/><path d="M189,1996L240,2067L320,1981Z" fill="#b5447e" stroke="#b5447e"/><path d="M320,1981L240,2067L342,2080Z" fill="#bd467b" stroke="#bd467b"/><path d="M320,1981L342,2080L423,2016Z" fill="#bf507a" stroke="#bf507a"/><path d="M423,2016L342,2080L415,2109Z" fill="#c64e77" stroke="#c64e77"/><path d="M423,2016L415,2109L457,2109Z" fill="#c95279" stroke="#c95279"/><path d="M423,2016L457,2109L483,2015Z" fill="#c55c7d" stroke="#c55c7d"/><path d="M483,2015L457,2109L586,2075Z" fill="#c96180" stroke="#c96180"/><path d="M483,2015L586,2075L566,1993Z" fill="#c56e86" stroke="#c56e86"/><path d="M566,1993L586,2075L685,1971Z" fill="#c47a8d" stroke="#c47a8d"/><path d="M685,1971L586,2075L633,2114Z" fill="#c9768d" stroke="#c9768d"/><path d="M685,1971L633,2114L752,2105Z" fill="#cb7c92" stroke="#cb7c92"/><path d="M685,1971L752,2105L790,2009Z" fill="#c6889a" stroke="#c6889a"/><path d="M790,2009L752,2105L852,2108Z" fill="#ca869b" stroke="#ca869b"/><path d="M790,2009L852,2108L844,1992Z" fill="#c38e9f" stroke="#c38e9f"/><path d="M844,1992L852,2108L927,2069Z" fill="#c38d9f" stroke="#c38d9f"/><path d="M844,1992L927,2069L931,2005Z" fill="#bd94a2" stroke="#bd94a2"/><path d="M931,2005L927,2069L1033,2076Z" fill="#bd93a2" stroke="#bd93a2"/><path d="M931,2005L1033,2076L1043,2010Z" fill="#b494a5" stroke="#b494a5"/><path d="M1043,2010L1033,2076L1081,2007Z" fill="#ad90a6" stroke="#ad90a6"/><path d="M1081,2007L1033,2076L1109,2119Z" fill="#ae89a4" stroke="#ae89a4"/><path d="M1081,2007L1109,2119L1168,1994Z" fill="#a38ba8" stroke="#a38ba8"/><path d="M1168,1994L1109,2119L1234,2104Z" fill="#9f82a6" stroke="#9f82a6"/><path d="M1168,1994L1234,2104L1308,1993Z" fill="#8e84aa" stroke="#8e84aa"/><path d="M1308,1993L1234,2104L1324,2114Z" fill="#8a7aa7" stroke="#8a7aa7"/><path d="M1308,1993L1324,2114L1382,2089Z" fill="#8078a7" stroke="#8078a7"/><path d="M1308,1993L1382,2089L1391,2031Z" fill="#7979aa" stroke="#7979aa"/><path d="M1391,2031L1382,2089L1456,2115Z" fill="#786baa" stroke="#786baa"/><path d="M1391,2031L1456,2115L1501,2015Z" fill="#6f69af" stroke="#6f69af"/><path d="M1501,2015L1456,2115L1576,2080Z" fill="#695db2" stroke="#695db2"/><path d="M1501,2015L1576,2080L1591,1999Z" fill="#635cb4" stroke="#635cb4"/><path d="M1591,1999L1576,2080L1623,2110Z" fill="#6c51af" stroke="#6c51af"/><path d="M1591,1999L1623,2110L1658,1989Z" fill="#6b52b0" stroke="#6b52b0"/><path d="M1658,1989L1623,2110L1732,2096Z" fill="#7446aa" stroke="#7446aa"/><path d="M1658,1989L1732,2096L1753,2034Z" fill="#7644a9" stroke="#7644a9"/><path d="M1753,2034L1732,2096L1857,2103Z" fill="#8234a1" stroke="#8234a1"/><path d="M1753,2034L1857,2103L1843,1996Z" fill="#8333a1" stroke="#8333a1"/><path d="M1843,1996L1857,2103L1928,1992Z" fill="#882d9e" stroke="#882d9e"/><path d="M1928,1992L1857,2103L1946,2120Z" fill="#912298" stroke="#912298"/><path d="M1928,1992L1946,2120L2014,2003Z" fill="#931f97" stroke="#931f97"/><path d="M2014,2003L1946,2120L2014,2112Z" fill="#9b1492" stroke="#9b1492"/><path d="M2014,2003L2014,2112L2038,2211Z" fill="#a20f8e" stroke="#a20f8e"/><path d="M-24,2121L-77,2198L13,2215Z" fill="#a5046c" stroke="#a5046c"/><path d="M-24,2121L13,2215L128,2126Z" fill="#ac0e71" stroke="#ac0e71"/><path d="M-24,2121L128,2126L19,2070Z" fill="#a61774" stroke="#a61774"/><path d="M128,2126L13,2215L136,2182Z" fill="#b61471" stroke="#b61471"/><path d="M128,2126L136,2182L238,2182Z" fill="#bf2174" stroke="#bf2174"/><path d="M128,2126L238,2182L240,2067Z" fill="#bf2c77" stroke="#bf2c77"/><path d="M240,2067L238,2182L342,2080Z" fill="#c23877" stroke="#c23877"/><path d="M342,2080L238,2182L320,2197Z" fill="#ca3472" stroke="#ca3472"/><path d="M342,2080L320,2197L415,2109Z" fill="#cc3f73" stroke="#cc3f73"/><path d="M415,2109L320,2197L371,2216Z" fill="#d3396f" stroke="#d3396f"/><path d="M415,2109L371,2216L482,2208Z" fill="#d54171" stroke="#d54171"/><path d="M415,2109L482,2208L457,2109Z" fill="#d14c76" stroke="#d14c76"/><path d="M457,2109L482,2208L580,2156Z" fill="#d45279" stroke="#d45279"/><path d="M457,2109L580,2156L586,2075Z" fill="#cf5f7f" stroke="#cf5f7f"/><path d="M586,2075L580,2156L633,2114Z" fill="#d16884" stroke="#d16884"/><path d="M633,2114L580,2156L646,2199Z" fill="#d66484" stroke="#d66484"/><path d="M633,2114L646,2199L752,2105Z" fill="#d46e8b" stroke="#d46e8b"/><path d="M752,2105L646,2199L771,2175Z" fill="#d7718e" stroke="#d7718e"/><path d="M752,2105L771,2175L852,2108Z" fill="#d17d97" stroke="#d17d97"/><path d="M852,2108L771,2175L856,2171Z" fill="#d27b96" stroke="#d27b96"/><path d="M852,2108L856,2171L927,2069Z" fill="#ca849a" stroke="#ca849a"/><path d="M927,2069L856,2171L957,2201Z" fill="#cc8199" stroke="#cc8199"/><path d="M927,2069L957,2201L1033,2076Z" fill="#c3879e" stroke="#c3879e"/><path d="M1033,2076L957,2201L1058,2155Z" fill="#c0809d" stroke="#c0809d"/><path d="M1033,2076L1058,2155L1109,2119Z" fill="#b582a1" stroke="#b582a1"/><path d="M1109,2119L1058,2155L1097,2180Z" fill="#b67b9e" stroke="#b67b9e"/><path d="M1109,2119L1097,2180L1191,2202Z" fill="#b1759f" stroke="#b1759f"/><path d="M1109,2119L1191,2202L1234,2104Z" fill="#a676a1" stroke="#a676a1"/><path d="M1234,2104L1191,2202L1283,2164Z" fill="#9e70a0" stroke="#9e70a0"/><path d="M1234,2104L1283,2164L1324,2114Z" fill="#9272a3" stroke="#9272a3"/><path d="M1324,2114L1283,2164L1355,2207Z" fill="#8f69a0" stroke="#8f69a0"/><path d="M1324,2114L1355,2207L1382,2089Z" fill="#866aa2" stroke="#866aa2"/><path d="M1382,2089L1355,2207L1453,2158Z" fill="#8361a4" stroke="#8361a4"/><path d="M1382,2089L1453,2158L1456,2115Z" fill="#7a61a9" stroke="#7a61a9"/><path d="M1456,2115L1453,2158L1548,2160Z" fill="#7655aa" stroke="#7655aa"/><path d="M1456,2115L1548,2160L1576,2080Z" fill="#6d53af" stroke="#6d53af"/><path d="M1576,2080L1548,2160L1623,2110Z" fill="#714bac" stroke="#714bac"/><path d="M1623,2110L1548,2160L1674,2177Z" fill="#7841a8" stroke="#7841a8"/><path d="M1623,2110L1674,2177L1732,2096Z" fill="#7d3ba5" stroke="#7d3ba5"/><path d="M1732,2096L1674,2177L1722,2202Z" fill="#8532a0" stroke="#8532a0"/><path d="M1732,2096L1722,2202L1798,2199Z" fill="#8a2a9d" stroke="#8a2a9d"/><path d="M1732,2096L1798,2199L1857,2103Z" fill="#8b299c" stroke="#8b299c"/><path d="M1857,2103L1798,2199L1885,2192Z" fill="#951c96" stroke="#951c96"/><path d="M1857,2103L1885,2192L1946,2120Z" fill="#981994" stroke="#981994"/><path d="M1946,2120L1885,2192L2038,2211Z" fill="#a30a8e" stroke="#a30a8e"/><path d="M1946,2120L2038,2211L2014,2112Z" fill="#a4098d" stroke="#a4098d"/><path d="M13,2215L371,2216L238,2182Z" fill="#c92171" stroke="#c92171"/><path d="M13,2215L238,2182L136,2182Z" fill="#bd1771" stroke="#bd1771"/><path d="M238,2182L371,2216L320,2197Z" fill="#d12e6f" stroke="#d12e6f"/><path d="M371,2216L2038,2211L1355,2207Z" fill="#a1689c" stroke="#a1689c"/><path d="M371,2216L1355,2207L957,2201Z" fill="#d57794" stroke="#d57794"/><path d="M371,2216L957,2201L482,2208Z" fill="#dc5b7e" stroke="#dc5b7e"/><path d="M482,2208L957,2201L646,2199Z" fill="#dc6788" stroke="#dc6788"/><path d="M482,2208L646,2199L580,2156Z" fill="#da587c" stroke="#da587c"/><path d="M646,2199L957,2201L771,2175Z" fill="#d97392" stroke="#d97392"/><path d="M771,2175L957,2201L856,2171Z" fill="#d47895" stroke="#d47895"/><path d="M957,2201L1355,2207L1191,2202Z" fill="#b06e9c" stroke="#b06e9c"/><path d="M957,2201L1191,2202L1097,2180Z" fill="#bd749b" stroke="#bd749b"/><path d="M957,2201L1097,2180L1058,2155Z" fill="#c1799b" stroke="#c1799b"/><path d="M1191,2202L1355,2207L1283,2164Z" fill="#9b689e" stroke="#9b689e"/><path d="M1355,2207L2038,2211L1722,2202Z" fill="#8a2b9d" stroke="#8a2b9d"/><path d="M1355,2207L1722,2202L1548,2160Z" fill="#7545a9" stroke="#7545a9"/><path d="M1355,2207L1548,2160L1453,2158Z" fill="#7e55a6" stroke="#7e55a6"/><path d="M1548,2160L1722,2202L1674,2177Z" fill="#8037a3" stroke="#8037a3"/><path d="M1722,2202L2038,2211L1798,2199Z" fill="#9b1592" stroke="#9b1592"/><path d="M1798,2199L2038,2211L1885,2192Z" fill="#a00d8f" stroke="#a00d8f"/></g></svg>